<?xml version="1.0" encoding="utf-8"?>
<!-- Generator: Adobe Illustrator 19.0.1, SVG Export Plug-In . SVG Version: 6.00 Build 0)  -->
<svg version="1.1" id="Слой_1" xmlns:serif="http://www.serif.com/"
	 xmlns="http://www.w3.org/2000/svg" xmlns:xlink="http://www.w3.org/1999/xlink" x="0px" y="0px" viewBox="28.9 159.2 472 548.3"
	 style="enable-background:new 28.9 159.2 472 548.3;" xml:space="preserve">
<style type="text/css">
	.st0{fill:#2982CC;}
</style>
<g transform="matrix(1,0,0,1,-8.58111,-38.3813)">
	<path class="st0" d="M435.7,324.9C436.3,325.1,435.3,323.8,435.7,324.9z"/>
</g>
<g transform="matrix(1,0,0,1,-8.58111,-38.3813)">
	<path class="st0" d="M160,231.7C159.5,231.9,160,231.7,160,231.7z"/>
</g>
<g transform="matrix(1,0,0,1,-8.58111,-38.3813)">
	<path class="st0" d="M285.2,323.5c-0.1-0.5-1.2-1.6-1.8-2.2c-0.6-0.5-0.9-1-0.9-1.5c0-0.4,0.8-1.2,0.5-1.3
		c-0.3-0.1-0.9,0.1-1.5,0.2c-0.6,0.1-0.4-0.4-0.7-1c-0.4-0.6,0.3-0.8,0.5-1.4c0.2-0.6,0.6-1.4,0.9-1.3c0.2,0.1,1.3,0.1,1.8,0
		c0.4-0.1,1.1-3.2,1.1-3.2s0.4,1.2,0.6,1.7c0.1,0.4,0.5-0.3,1-0.2c0.5,0.1,0.4,0.3-0.4,0.9c-0.9,0.5-0.6,0.5-1.5,0.9
		c-0.9,0.4,0.3,0.7,0.7,1.2c0.4,0.4,1,0.6,1.3,0.9c0.2,0.3-0.1,1.3-0.2,1.5c-0.1,0.2,0.5,0.8,0.8,0.8c0.3,0,0.7,0.4,0.5,1
		c-0.1,0.7,0.1,1.3,0.4,1.6c0.3,0.2,0.5,1,0.5,1.2c0.1,0.2,0.7,1.6,1,1.8c0.4,0.1,0.7,1.2,0.9,1.4c0.2,0.2,0.4,1.3,0.4,1.7
		c0,0.4-0.1,1.2-0.5,2c-0.5,0.8-0.9,1.6-1.6,1.1c-0.7-0.5-0.4-0.6-0.5-1.3c-0.1-0.7,0-0.9,0.2-1.5c0.2-0.6,0.4-1.2,0.4-1.8
		c0-0.7-0.2-1.3-0.2-1.3s-0.9,0.5-1,0.8c-0.2,0.2-0.7,0.2-0.4-0.4c0.2-0.7-0.1-1.2-0.1-1.3c0-0.2-0.4-0.9-1.1-1
		C286.2,323.2,285.3,324,285.2,323.5z M247.2,269.1c-0.6,0.1-1.4,0.2-1.8,0.1c-0.4-0.1-1.1-0.3-1.5-0.4s-1.2,0.3-1.2,0.3
		s1.2,0.3,1.7,0.5c0.5,0.2-0.4,1.3-0.7,1.3c-0.2,0-0.7,0.1-0.9-0.2c-0.2-0.4-1.7-0.2-1.7-0.2s-0.3,0.4-0.5,0.4
		c-0.2-0.1-1.3,0.4-1.7,0.4c-0.4,0-0.4,0.9-0.4,1.2c0,0.2-0.9,1.2-1.4,1.1c-0.5-0.1-1.3,0.9-1.4,1.2c-0.1,0.3-0.7,1.2-0.9,1.4
		c-0.3,0.1-1.4,0.2-1.5-0.1c-0.1-0.3-1.2-0.1-1.5-0.1c-0.3,0-0.5,1.4-0.5,1.7c0,0.3-0.5,0.7-1,0.9c-0.5,0.1-1.3-0.1-1.3,0.2
		s-0.6,0.3-0.9,0.4c-0.3,0.1-0.7-0.1-0.7-0.4c0-0.3-1.8,0.4-1.8,0.4s-1.8,0.3-2,0.3c-0.2,0-1.2-0.1-1.4-0.4
		c-0.2-0.4-0.9-0.6-1.1-0.7c-0.2-0.1-0.8-0.1-1.2,0.2c-0.4,0.3-1.1,0.1-1.5,0c-0.4-0.1-0.7-0.9-1.1-1.1c-0.4-0.1-0.4-1.4-0.4-1.4
		s0.7,1.1,1.2,1.4c0.6,0.3,1.2,0.3,1.5,0.1c0.3-0.2,0.4-0.2,0.8-0.7c0.4-0.4,0.5,0,0.9,0c0.4,0,0.9,0.4,1.5,0.3
		c0.5-0.1,0.5-0.4,0.6-1.1c0.1-0.7,0.8-1.3,1-1.6c0.2-0.3,0.5-0.2,1.5,0.1c0.9,0.4,0.8-0.1,1.4-0.4c0.6-0.3,0.2-0.7-0.2-0.7
		c-0.4-0.1-0.5-0.8-0.9-0.9c-0.4-0.1-0.1-0.8-0.5-1.4c-0.4-0.6-1.2-0.9-1.6-1.2c-0.4-0.3-0.9-0.8-1-1c-0.1,0-0.1,0-0.1-0.1
		c0,0,0,0,0.1,0.1c0.2,0,0.5,0,0.6,0c0.2,0,0.8,0.3,1.3,0.6c0.5,0.3,0.9,0.7,1.2,0.8c0.3,0.1,0.7,0.4,0.9,0.3
		c0.2-0.1,1.2,0.2,1.6,0.2c0.4,0,0.7,0.4,0.7,0.6c0,0.2,0.9,0.7,0.9,0.7l1.3,0.6c0,0,0.8,0.3,1.5,0.1c0.3-0.1,0.4,0.4,1.5-0.1
		c0.2-0.1,0.8-0.3,0.8-0.3s0.7,0,1.2-0.5c0.4-0.5,0.1-0.4,0.9-1c0.8-0.6,0.6-0.2,0.9-0.4c0.4-0.2,0.4-0.4,1-0.8
		c0.6-0.4,0.3,0,0.9-0.3c0.6-0.3,0.4-0.5,0.8-1.1c0.4-0.6,0.6-0.5,0.9-0.6c0.3-0.1,0.9,0.3,1.3,0.3c0.4,0,1.9,0.1,2.3,0
		c0.4-0.1,1.7,0.6,1.7,0.6S247.8,269,247.2,269.1z M214.5,251c0.1,0.1,0.4,0.2,0.3,0.3c-0.1,0.1,0.4,0.1,0.5,0.1
		c0.1,0,0.8-0.1,0.8,0.1c0.1,0.2,0.4,0.2,0.1,0.5c-0.2,0.3-1.1,0.4-1.3,0.4c-0.2,0-0.5,0.1-1-0.2c-0.5-0.2-0.5-0.4-0.6-0.5
		c-0.1-0.1-0.5-0.2-0.7-0.3c-0.2-0.1-0.5-0.2-0.7-0.1c-0.1,0-0.3,0.1-0.6,0.2c-0.3,0.1-0.4-0.1-0.7-0.1c-0.3,0.1-0.8,0-0.9,0.1
		c-0.1,0.1-0.1,0-0.3,0.2c-0.2,0.2-0.6,0.5-0.7,0.6c-0.1,0.1-0.6,0.1-0.4,0.3c0.3,0.2,0.8,0.3,1,0.5c0.2,0.2,0.7,0.5,0.7,0.7
		c0,0.2,0.1,0.3-0.2,0.4c-0.3,0.1-0.8,0-1,0c-0.2,0-0.4,0-0.6,0.2c-0.2,0.2-0.1,0.3-0.4,0.5c-0.3,0.2-0.1,0.1-0.4,0.3
		c-0.3,0.1-0.2,0-0.6,0.4c-0.4,0.4-1,1.1-1.2,1c-0.3,0-0.5-0.2-1,0.2c-0.4,0.4-0.9,0.4-1.1,0.5c-0.3,0.1-0.8-0.1-0.8-0.2
		c0-0.1,0-0.4,0.1-0.5c0.1-0.1,0.5-0.4,0.6-0.5c0.1,0,0.8-0.2,0.9-0.2c0.1,0,0.3-0.1,0.6-0.2c0.3-0.1,0.8-0.3,0.9-0.4
		c0.1-0.2,0.2-0.5,0.3-0.6c0.1-0.1,0.5-0.1,0.6-0.3c0.1-0.2,0.3-0.4,0.3-0.5c0-0.1,0-0.3,0-0.4c0-0.1,0-0.3-0.1-0.4
		c-0.1-0.1-0.5-0.5-0.7-0.4c-0.1,0-0.8,0-1.1,0.1c-0.2,0.1-0.6,0.2-0.7,0.3c-0.1,0.1-0.7,0.1-0.8,0.2c-0.2,0.1-0.2,0-0.4,0.3
		c-0.2,0.3-0.1,0.3-0.4,0.6c-0.4,0.3-0.5,0.5-0.6,0.6c-0.1,0.2,0,0.4-0.2,0.7c-0.2,0.2-0.1,0.1-0.3,0.4c-0.2,0.2-0.3,0.4-0.5,0.5
		c-0.2,0.1-0.5,0-0.6,0c-0.2,0-0.4-0.1-0.5-0.1c-0.1,0-0.2-0.3-0.4-0.2c-0.2,0.1-0.7,0-0.8,0c-0.1,0-0.5-0.1-0.7,0
		c-0.2,0.1-0.6,0.2-0.8,0.1c-0.2-0.1-0.7,0-0.8-0.2c-0.1-0.2-0.3-0.2-0.4-0.4c-0.1-0.2-0.2-0.6,0-0.6c0.2,0,0.3,0.1,0.6,0
		c0.3-0.1,0.6-0.2,0.7-0.2c0.1,0,0.2-0.1,0.2-0.2c0-0.1,0.2-0.4,0.2-0.5c0-0.1,0.1-0.3,0.2-0.4c0.1-0.1,0.1-0.3,0.3-0.4
		c0.2-0.2,1.2-0.9,1.4-1c0.2-0.1,0.2-0.2,0.3-0.5s-0.2-0.6-0.3-0.6c-0.1,0-0.6-0.1-0.9-0.1c-0.3,0-0.9-0.4-0.8-0.4
		c0.1-0.1,0.4,0,0.8-0.2c0.4-0.1,1-0.1,1.1-0.1c0.1,0,0.8-0.2,0.8,0.1c0,0.3,0.2,0.5,0.5,0.5c0.3,0,0.7,0.1,1,0
		c0.3-0.1,0.7-0.2,0.9-0.2c0.2,0,0.4-0.4,0.3-0.4c-0.2,0-0.8-0.5-1.2-0.6c-0.4-0.1-0.9-0.5-1-0.5c-0.2-0.1-0.6-0.1-0.8-0.2
		c-0.2-0.1-0.4-0.2-0.7-0.2c-0.3,0.1-0.6,0-0.9,0c-0.3,0.1-0.5,0-0.8,0.2c-0.3,0.1-0.9,0.4-0.9,0.4s-0.3,0.1-0.6,0.2
		c-0.3,0.1-0.8-0.2-1.1-0.1c-0.3,0-0.6-0.2-0.7-0.2s-0.3,0-0.5,0.2c-0.2,0.1-0.4-0.2-0.7,0c-0.3,0.2-0.3,0.2-0.5,0.3
		c-0.3,0.1-1-0.1-1-0.1s-0.7,0.8-1.5,0.9c-0.8,0.1-1.1-0.9-1.1-0.9c0.9-1.1,0.3-1.7,0.9-1.1c0.6,0.6,1.2,0,1.6-0.1
		c0.3-0.1,1.4,0,1.4,0s1-0.3,1.5-0.5c0.5-0.1,1.5-0.2,1.5-0.2l1.7-1c0,0,1,0.2,1.5,0.2s1.2,0.1,1.6-0.2c0.3-0.3,2.4-1.1,2.4-1.1
		l2.7-0.9c0,0,1.1-0.6,1.7-0.5c0.6,0.1,1.2,0.5,1.7,0.8c0.5,0.3,1.5,0.6,1.5,0.6s-2.2,0.1-2.3,0.5c-0.1,0.3-1.9,0.2-1.5,0.6
		c0.5,0.3,1,1,0.3,1c-0.7,0-2-0.1-1.7,0c0.3,0.1,1.5,0.5,1.8,0.7c0,0,1.3,0.1,1.5,0.3c0.3,0.1,0.6,0.1,0.7-0.1
		c0.2-0.2,0.6-0.2,0.7-0.1s1.1-0.1,1.2,0c0.1,0.1,0.5,0,0.8,0c0.3,0,0.8-0.1,0.8-0.3c0.1-0.2,0.2-0.7,0.4-0.7
		c0.2,0.1,0.4-0.1,0.6-0.3c0.2-0.2,0.4-0.5,0.5-0.5s0.3-0.1,0.5,0.1c0.2,0.2,0.5,0.5,0.5,0.8c-0.1,0.3,0.4,0.5,0.1,0.7
		c-0.3,0.2-0.7,0.4-0.8,0.7c-0.1,0.3-0.2,0.6-0.3,0.8c0,0.2-0.3,0.4-0.6,0.5c-0.3,0.2-0.4,0.3-0.7,0.4
		C214.5,250.8,214.4,250.9,214.5,251z M308.2,346c0.4-0.2,1.8-1.3,2.5-1.8c0.7-0.5,1.8-1,2.5-1.1c0.7-0.1,2.7-1.4,2.8-1.7
		c0.1-0.3,0.5-2,0.9-1.8c0.4,0.2,0.8,0.6,0.8,0.9c0,0.2,0.9-0.9,1.2-1.3c0.4-0.4,1-1,1-1.4c-0.1-0.4,1-0.5,1.4-0.1s0.7,0.7,0.8,0.9
		c0.1,0.2,1-0.2,1.5-0.2c0.5-0.1,1.8,0.2,1.8,0.2s0.8,0.7,0.9,0.9c0.1,0.2,0.7,0.5,0.6,0.9c-0.1,0.4,1.3,1.6,1.6,2
		c0.2,0.4-0.2,0.7-0.2,1.1c0,0.4,0.4,0.3,0.7,0.1c0.3-0.2,0.4-1,0.7-1c0.3,0,1.6-0.4,1.6,0c0.1,0.4,0.9,0.9,0.6,1.5
		c-0.2,0.5-0.5,1.1,0,1.3c0.5,0.2,1.5,1,1.3,1.2c-0.2,0.2-0.8,0.4-0.8,0.7c0,0.3,0.2,0.7,0.6,0.8c0.4,0.1,1.3,0.6,1.3,0.9
		c-0.1,0.3-0.3,0.6,0,0.9c0.3,0.2,1.3,0.4,1.3,0.4s3.1-0.5,3.5-0.2c0.4,0.3,1.7,0.1,2,0.3c0.3,0.2,1.3,0.2,1.5,0.4
		c0.2,0.1,0.7,0.3,0.8,0.5c0.1,0.2,1,0.2,1.2,0.1c0.2-0.1,1.3,0.1,1.5,0.5c0.2,0.4,0.7,0.9,0.9,1.2c0.1,0.4,0.9,0.1,1,0.7
		c0.1,0.6,1.1,0.9,1,1.3c-0.1,0.4,0.4,0.7,0.3,0.9c-0.1,0.2,0.1,0.8-0.6,1.1c-0.7,0.3-1.2,0.5-1.7,0.1c-0.5-0.4-1.5-0.6-1.7-0.9
		c-0.2-0.3-1.1-1.2-1.5-1.3c-0.4-0.1-0.8-0.7-0.9-0.4c-0.1,0.2-0.2,1,0.1,1c0.4,0.1,0.6,0.4,0.9,0.9c0.3,0.5,1.1,0.9,0.6,1.3
		c-0.5,0.5-0.6,0.9-1.2,1.1c-0.6,0.2-0.9,0.2-0.9,0.5c0,0.3,0.2,0.5,0.2,1.2c0,0.7,0.2,1.3-0.1,1.6c-0.2,0.3-0.3,0.8-0.8,1
		c-0.5,0.2-1.2,1-1.2,1s-0.5,0.7-0.6,1.3c-0.1,0.6,0,0.9-0.4,1.1c-0.4,0.2-0.9-0.2-1.3,0.4c-0.4,0.5-0.9,0.6-0.5,1
		c0.4,0.4,0.9,0.1,1.4,0.2c0.5,0.1,1-0.2,1.3-0.5c0.3-0.4,0.7-0.9,1.2-0.9c0.5,0,1.6-0.3,1.6-0.3s0.3-0.5,0.5-0.7
		c0.2-0.1,1.2-0.4,1.2-0.4l1.1,0.2c0.5,0.6,1,0.7,1.2,0.5c0.2-0.1,0.7-0.7,0.7-0.7l0.5-0.6c0,0,0.6,0.2,0.8,0.3
		c0.2,0.1,1.1-0.2,1.1-0.2s0.7-0.1,0.9-0.1c0.2,0,0.7-0.3,0.7-0.3s0.7-0.6-0.6-0.7c-1.3-0.1-1.6-0.4-1.8-0.4
		c-0.2,0.1-0.4-0.4-0.1-0.6c0.4-0.2,0.6-0.5,1.3-0.6c0.7-0.1,0.9-0.1,0.9-0.9c0-0.8-0.6-0.7,0-0.8c0.6-0.1,1.3-0.5,1.6-0.2
		c0.3,0.2,0.9,0.2,1,0.4c0.1,0.2,1.6-0.8,2-0.8c0.4,0,0.7-0.2,1,0.1c0.2,0.2-0.2,0.4,0.6,0.5c0.8,0.1,1,0.1,1.5-0.1
		c0.5-0.2,0.5-0.3,0.7-0.4c0.2-0.1,0.5-1.3,1-1.3c0.4,0,0.5-0.5,1.3-0.7c0.8-0.2,1.1-0.5,1.6-0.7c0.5-0.2,1.1-1.1,1.6-1.2
		c0.5-0.1,0.7-0.5,0.5-0.1c-0.2,0.4-2.4,2.6-3,3.1c-0.6,0.5-1.1,0.1-1.2,0.8c-0.1,0.7,0.2,0.7,0,1.3s-0.1,0.7-0.4,1.1
		c-0.4,0.4-0.2,0.4-0.7,0.5c-0.5,0.2-0.6,0.1-0.9,0.2c-0.7,0.5,0.1,1.3-1.3,0.7c-1.4-0.6-1.4-0.7-2-0.7c-0.6,0.1-1.3-0.1-1.7-0.1
		c-0.4,0.1-2-0.3-2,0.1c0.1,0.9,0.1,1.4-0.1,1.9c-0.2,0.5-0.5,0.9-1.1,1.2c-0.6,0.3-1.6,0.7-1.6,0.7s-0.4,1.1-0.7,1.3
		c-0.2,0.2-0.9,0.2-1.5,0.4c-0.5,0.2-1.5,0.6-1.5,0.6s-0.5-0.4-1.2,0c-0.6,0.4-0.5,0.5-1.1,0.9c-0.6,0.3-2.6,0.5-3.4,0.8
		c-0.7,0.3-1.9-0.2-2.3-0.3c-0.4-0.1-0.9-0.4-1.3-0.4c-0.4-0.1-1-0.1-1.2-0.5c-0.1-0.4-0.6,0.2-0.1-0.4c0.5-0.5-0.1-0.1,0.7-0.9
		c0.8-0.7,1.6-2.9,1.9-3.1c0.3-0.2,0.4-0.4,0.7-0.5c0.3-0.2,0.5-0.7,0.4-1c-0.1-0.3-0.1-1.2-0.3-1.5c-0.2-0.3,0.3-0.8-0.1-1.4
		s-0.7-0.7-0.9-0.7c-0.2-0.1,0-0.8-0.6-0.5c-0.6,0.2-0.4,0.5-1,1c-0.6,0.5-0.7,1-1.3,1c-0.5,0.1-1.6-0.6-1.2-0.9
		c0.4-0.3,0.2-0.4,1.2-0.6c0.9-0.2,1.2-0.4,1.2-0.5c-0.1-0.1,0.1-0.1,0.2-0.9c0.1-0.8-0.2-3,0.1-3.4c0.2-0.4-0.2-1.5-0.5-1.6
		c-0.4-0.2-1.8-1-2.1-0.9c-0.3,0.1-1.3-0.4-1.7-0.2c-0.4,0.2-0.9-0.3-0.9-0.3s0.1-0.1-0.7,0.6c-0.7,0.7-0.5,0.5-0.9,1.3
		c-0.4,0.8,0.1,0.4-0.4,1.2c-0.5,0.7-0.2,1.7-0.8,0.9c-0.6-0.9-0.4-1-0.9-0.7c-0.5,0.4-0.5,0.4-0.9,0.8c-0.4,0.4-0.8,0.7-0.9,1.1
		c-0.1,0.4-0.2,1.1-0.1,1.4c0.1,0.3,0.2,0.7-0.2,1c-0.4,0.4-0.5,1.3-0.5,1.5s0.1,0.4,0.5,0.9c0.4,0.4,1,0.4,1,1.4
		c-0.1,1-0.1,1.2-0.4,2c-0.3,0.8-0.7,1.5-0.9,2c-0.2,0.5,0.3,0.8-0.3,1.3c-0.6,0.5-1.3,0.8-1.5,0.9c0,0-2.1-0.5-2.3-0.9
		c-0.2-0.4-0.6-2.3-0.7-2.7c-0.1-0.4-0.7-1.3-0.2-2.2c0.5-0.9,0.7-0.9,0.7-1.4s-0.5-1.9-0.2-2.6c0.3-0.7,0.3-0.8,0.7-1.2
		c0.4-0.4,0.7-0.5,1-1.3c0.4-0.9,0.6-1.3,0.6-1.8c0-0.5,0.4-0.7,0.2-1.3c-0.2-0.6,0.1-1.2-0.2-0.9c-0.2,0.3-0.9,1.9-1.6,2.9
		c-0.7,1-0.8,1.2-1,1c-0.2-0.2-0.3-0.7,0.2-1.3c0.5-0.7,0.5-0.4,1-1.4c0.4-1,0.5-0.4,0.5-1.2c0-0.9,0.2-1.5,0.5-1.3
		c0.3,0.2,0.8,0.1,1.5,0.2c0.7,0.1,0.4,0.4,1,0.1c0.6-0.2,0.9-0.9,1.2-0.9c0.2-0.1,0.4-0.4,1.1-0.4c0.7,0,0.6,0.3,1,0
		c0.4-0.3,0.4-0.9,0.8-0.6c0.4,0.2,0.2,0.1,1.2,0.2c1,0.2,0.9,0,1.6,0.1c0.7,0.1,0.7-0.1,1.3,0.1c0.6,0.2,0.2,0.1,0.6,0.2
		c0.4,0.1,0-0.4-0.7-0.9c-0.7-0.5-1.3-0.8-1.6-0.8c-0.4,0-0.4,0.2-0.9-0.4c-0.5-0.5-0.2-0.8-0.7-0.8c-0.5,0-0.8-0.4-1.6-0.1
		c-0.8,0.2-1-0.3-1.8,0.2c-0.8,0.5-1.2,0.9-1.6,0.9c-0.4,0.1-0.9-0.1-1.3-0.2c-0.4-0.1-0.7-1-1.2-0.6c-0.5,0.4-1-0.8-1.7-1.1
		c-0.7-0.3-1.2-0.6-1.8-0.5c-0.6,0.1-1.7,0.2-0.9-0.2c0.9-0.4,1.4-0.9,2.1-1.2c0.7-0.3,1.5-0.7,0.6-0.9c-0.9-0.2-1.4-0.4-2-0.1
		c-0.6,0.3-0.9,0.6-1.7,1.2c-0.9,0.6-1,0.6-1.6,1.3c-0.6,0.7-0.5,0.9-1.3,1.1c-0.9,0.2-0.5-0.3-1.5,0.1c-0.9,0.4-0.5,0.2-0.9,0.4
		c-0.4,0.2-0.9-0.1-1.3-0.2c-0.5-0.1-1-0.2-0.9-0.4c0.2-0.2,0.5-0.7,0.2-0.7c-0.3,0-0.8-0.4-1.3-0.1c-0.5,0.4-0.1,0.3-0.7,0.7
		c-0.5,0.4-1.3,0.4-1.7,0.5c-0.4,0.1-0.6-0.1-0.6-0.1l-0.1-0.5C306.2,347.1,307.9,346.2,308.2,346z M345.3,498.7
		c0.1,0.2,0.7,0.9,0.6,1c-0.1,0.2-0.1,0.3,0,0.4c0,0.1,1.1,0.2,1.1,0.2l0.6-0.2l0.5-0.2c0.5-0.7,0.6-1,0.5-1.1
		c-0.1-0.1-0.6-0.6-0.6-0.8c0-0.2-0.2-0.8-0.2-0.9c0-0.1,1-0.7,1.2-0.6c0.1,0,0.4,0,0.6-0.5c0.2-0.4,0.2-0.5,0.2-0.7
		c0-0.2,0-0.4,0.2-0.6c0.2-0.2,0.4-0.3,0.4-0.3s0.6-0.5,0.6-0.3c0.1,0.2,0.1,0.7,0.3,1c0.2,0.2,0.5-0.1,0.8-0.3
		c0.3-0.2,0.6-0.4,0.7-0.4c0.2,0,0.4-0.2,0.5-0.2c0.2,0.1,0.2,0.2,0.5,0.5c0.2,0.3,0.8,0.1,0.7,0.5c0,0.1,0,0.1,0,0.1
		c0.1,0.1,0.2,0.2,0.4,0.4c0.8,0.9,1.4,0.8,0.8,0.9c-0.6,0.1-0.8,0-1,0.2c-0.2,0.3,0,0.6-0.2,0.9c-0.2,0.2,0,0.1,0.2,0.6
		c0.1,0.3,1.1,1.3,1.8,1.9c0.6-0.4,1.3-1,1.1-1.7c1.1,0.1,1.7-0.7,2-1.5c-0.2,0-0.6-0.5-0.7-0.7c-0.2-0.2-0.5-0.3-0.9-0.6
		c-0.4-0.3-0.2-1.1-0.7-1.3c-0.5-0.2-0.8-1.1-1.2-1.1c-0.4,0-0.4-0.6-1.1-0.6c-0.7-0.1-0.9-0.1-1.3-0.2c-1-0.4-1.3-0.7-1.6-0.6
		c-0.3,0.1-0.2-1.2-1-0.2c-0.7,1-0.8-0.4-1.1,0.6c-0.3,1,0.1,0.7-0.3,1c-0.4,0.3-0.6,0.2-1.7,0.6c-1.1,0.4-1.8,0.2-1.8,0.2l-1.1,0.2
		c0,0-0.2,0.2-1.5,0.2c-1.4,0-1.5-0.4-2-0.7c-0.5-0.3-1.3-0.5-1.5-0.9c-0.2-0.3-0.4-0.6-0.7-0.9c-0.3-0.2-0.6-0.4-1-1
		c-0.4-0.6-0.5-0.9-0.7-1.5c-0.2-0.6-0.2-0.8-0.4-1c-0.1-0.1-0.2-0.2-0.3-0.4c-1.1-1.3-1.1-1.6-1.3-1.7c-0.2-0.2,0.3-1,0.2-1.4
		c-0.2-0.5,0-0.9,0-1.7c0-0.8,0.3-0.9,0.2-1.7c-0.1-0.8-0.1-1.5,0.2-1.9c0.2-0.4,0.4,0.1,0.5-1c0.1-1,0.6-2.1,0.6-2.3
		c0-0.2,0.6-1.3,0.6-1.7c0-0.5-0.2-0.6-0.4-1c-0.2-0.4-0.5-0.2-0.9-0.8c0,0,0,0,0,0c-0.4-0.6-0.6-1-0.8-1.3c-0.7-1-2.5-1.5-2.7-1.8
		c-0.2-0.2,0.2-0.7-0.6-0.8c-0.8-0.1-1.2-0.5-1.7-0.4c-0.6,0.2-1.8,0.3-2.5,0.5c-0.8,0.2-0.7,0.3-1.6,0.5c-0.9,0.2-1.2-0.6-2.1-0.5
		c-0.9,0.2-0.6-0.4-1.5-0.2c-1,0.2-0.6-0.2-1.4,0.2c-0.2,0.1-0.4,0.1-0.5,0.2c-0.4,0.1-0.6-0.1-1.1,0.3c-0.6,0.6-1.9,1.7-1.8,0.2
		c0-0.1,0-0.2,0-0.3c0.2-1.2,1-1.8,1.1-2c0.2-0.2,0.9-0.6,0.9-1c0-0.4,0.1-0.7,0.1-1c0-0.3,0-1.5-0.1-2.2c-0.1-0.7-1.5-1.2-0.2-1.4
		c0.6-0.1,0.8-0.4,0.7-0.7c-0.1-0.3-0.3-0.7-0.4-0.9c-0.1-0.5-0.6-1.1-0.2-1.4c0.4-0.3,0.8-0.8,0.8-0.2c0,0.6,0.4,1.8,0.4,2.1
		c0,0,0.6-1,0.6-1.2c-0.1-0.2-0.1-0.8,0.1-1.4c0.2-0.6,0.3-0.4,0.4-0.9c0.1-0.6,0.2-0.3,0-1.2c-0.2-0.9-0.3-1.4,0-2
		c0.3-0.6-0.3-0.1,1-1.4c1.3-1.3,1.2-0.7,1.6-1.6c0.4-0.9,1.2-0.6,0.4-1.4c-0.8-0.8-0.6-1.2-1.3-1.3c-0.7-0.1-0.6-0.6-1.5,0
		c-1,0.6-1,0.6-1.4,0.7c-0.3,0.2-2.1-0.4-2.5-0.5c-0.4-0.1-0.9-0.3-1.2,0c-1,1.1-2.6,1.1-2.9,1c-0.9-0.1-1-0.6-1.5,0.2
		c-0.5,0.7,0.6-0.5-0.5,0.7c-1,1.2-0.9-0.9-1,1.9c-0.2,2.8,0,2.7-0.4,3.1c-0.4,0.4-0.3,0.1-0.6,0.7c-0.2,0.6,0.2,0.8-0.3,1.3
		c-0.6,0.5-0.9,0.8-1.2,1c-0.6,0.2,0,0.6-0.6,0.8c-1.1,0.4-1-0.4-1.5-0.2c-0.5,0.2,0.2-0.6-0.8-0.2c-1,0.4-2,1-2,1s0.2-0.1-0.7,0.2
		c-0.9,0.3-1.5,0.2-1.9,0.2c-0.4,0.1-0.1-0.6-1.2-0.2c-1.1,0.5-0.4-0.1-1.1,0.5c-0.7,0.6-1,0.6-1.4,0.6c-0.4-0.1-0.1-0.6-0.8-0.9
		c-0.7-0.2-0.3-1-1.1-1c-0.8,0,0.2,0.2-0.8,0c-1-0.2-1.3-0.3-1.5-0.4c-0.9-0.5-1-0.6-1-0.8c0-0.2-0.4-1.7-0.8-1.9
		c-0.4-0.2-0.3-1.7-0.7-1.7c-0.4,0.1-0.5-0.5-1-1.1c-0.6-0.6-0.9-0.2-1.4-1.6c-0.5-1.4,0.7,1.4-0.5-1.4c-1.2-2.7-1.3-1.7-1.6-2.2
		c-0.2-0.4-0.6-0.7-0.7-1.8c-0.1-1-0.2-2.1,0.1-2.7c0.2-0.6,0.4-0.6,0.5-1.1c0.1-0.6,0-1.2-0.2-1.5c-0.2-0.3-0.4-0.9-0.2-1.1
		c0,0,1.2-0.8,1.1-1.1c-0.1-0.3-1-2.5-0.8-2.7c0.2-0.2,1.5-1.4,1.5-1.8c0-0.2,0.1-0.5,0.2-1v0c0-0.3,0.1-0.6,0.1-0.9
		c0-1,0.1-0.9-0.1-1.8c-0.2-1,0.1-1.3-0.6-2.1c-0.6-0.8-1.2-0.9-1-1.4c0.2-0.6,0.3-1.2,0.6-1.5c0.3-0.3,1-0.7,1-0.7
		c0.6-0.9,0.4-1.8,0.9-1.8c0.5-0.1,0.7-0.2,1-0.2c0.2-0.1,0.4-0.8,0.8-0.9c0.9-0.1,0.5,0.2,1.3,0c0.8-0.2,2.3-0.6,2.3-0.9
		c0-0.2,0-0.2,0.6-0.7c0.6-0.5,1.1-0.2,1.2-1c0.1-0.8,0.2-0.2,0.1-0.8c-0.1-0.6,0.1-0.6,1-0.4c0.8,0.2,1.6,0.1,1.6,0.1
		c1-1,2.3-1.5,2.8-1.4c0.5,0.2,0.6,0.2,1,0.6c0.5,0.3-0.1,0.1,1.3,0.4c1.4,0.3,1.4,0.2,1.7,0.2c0.2,0,0.7-0.2,1-0.2
		c1.3-0.2,1.7,0.1,2.1,0.3c0.7,0.4,0.8,0,1.2,0.5c0.4,0.5-0.1,0.6,0.5,0.9c0.6,0.3,0.6,0.5,1.3,0.2c0.6-0.3,0.2-0.2,0.6-0.3l0.5-0.1
		c0,0-1,0.6,0.1,0.6c1.1,0,1.8-0.8,1.5-1c0,0,0.7-0.2,0.9,0.4c0.2,0.6,0.3,1,0.9,0.7c0.6-0.3,1-0.7,0.6-1c-0.4-0.2-0.8-0.8-0.8-1.3
		v-0.9l-0.8-0.4c0,0,0.2-0.5-0.5-0.6c-0.6-0.1-2.3,0.1-1.8-0.3c1.2-0.9,1-0.6,1.4-0.3c0.4,0.2,1.1-0.2,1.5,0c0.4,0.2,0.2,0.2,1-0.1
		c0.8-0.2,0.6-0.7,1.2-0.2c0.6,0.5,2.1,0.9,2.1,0.9s0.2-0.3,0.3-0.6c0.1-0.3,0.5-1,0.7-0.6c0.7,1,1.5,1,1.8,0.7
		c0.2-0.3,0.6-0.6,1-0.6c0.4,0,1.1,0,1.4,0.1c0.2,0.1,1.9,0.2,1.9,0.2l1.6,0.3l0.3,0.8c0,0,1,0.6,0.9,0.9c-0.1,0.3,1,0.7,1,0.7
		c0.9-0.2,1.7-0.4,2-0.5c0.2-0.1,1.1-0.6,1.1-0.6c1.3-0.4,1-0.5,1.3-0.1c0.3,0.4,0.2,0.4,0.7,0.6c0.5,0.2,1,0.4,1.3,0.9
		c0.2,0.5,0.7,0.3,1,0.8c0.2,0.5,0.7,1,0.8,1.3c0.1,0.2,0.6,1.1,0.6,1.1l0.1,0.8c-0.6,1-0.5,1.7-0.5,2.2c0,0.5-0.3,1.1-0.1,1.3
		c1,1,0.6,1.3,1.3,1.6c0.6,0.2,1,1.1,1,1.1s0.3,0.6,0.4,0.8c0.1,0.2,0.4,0.7,0.4,1.2c0,0.5-0.6,1.4-0.2,1l1.1,1.3c0,0,0.4,0.1,0.7,0
		c0.3-0.1,0.8-0.3,0.9,0.3c0.1,0.6,0.3,1.5,0.4,1.7c0.1,0.2,0.6,0.4,0.8,0.5c0.2,0.1,0.9,0.1,0.9,0.4l1-1c0,0,0.1-0.5,0.3-1
		c0.2-0.5,0.7-1.2,0.7-1.2s0.5-1,0.1-1.1c-0.3-0.1-0.1-0.2-0.3-1.3c-0.2-1.1-0.1-1.2,0-1.6c0.1-0.4,0.2-0.2,0.1-0.7
		c-0.2-0.5,0-0.3-0.5-0.8c-0.5-0.5-0.1-0.9-0.6-1.2c-0.6-0.3-0.3-0.5-0.6-1.3c-0.2-0.8,0.2,1-0.2-0.8c-0.4-1.8-0.7-1.7-0.4-2.4
		c0.3-0.7,0.6-0.8,0.4-1.3c-0.2-0.5-0.6-1-0.9-1.3c-0.2-0.3-1-0.4-1.3-1.4c-0.2-1-0.2-1-0.3-1.7c-0.1-0.7-0.7-0.5-0.1-1.4
		c0.6-1,0.2-0.2,0.1-1.4c-0.1-1.3-0.4-0.9,0.1-1.7c0.5-0.8,1-1.3,1.3-2c0.2-0.7-0.2-0.4,0.9-1.3c1-0.9,2.3-2,2.8-2.3
		c1.4-0.9,1.3-1,1.7-1.3c0.4-0.3,0.6-0.5,1-0.9c0.4-0.5,0.4-0.9,1-1.4c0.6-0.5,0.3-1,1.2-0.6c0.9,0.3,1.4,0.2,1.8,0.1
		c0.3-0.1-0.3,0.7,0.9-0.8c1.2-1.5,1.7-1.5,1.8-1.8c0.2-0.3,1.4-1.1,1.5-0.9c0.2,0.2,0.2,0.5,0.7,0.2c0.6-0.3,1.3-0.8,1.1-0.9
		c-1.5-0.7-1.9-1-1.6-1.3c0.3-0.3-0.4-0.6,0.6-0.6c1-0.1,0.9,0.2,1.3,0c0.9-0.6,1.7-1,1.8-1.3c0.1-0.3,0.2-0.9,0.2-0.9
		c-1.2-0.6-1.4-0.2-1.5-0.7c-0.1-0.6,0.2-1,0.2-1s0.6,0.2,0.5-0.6c-0.1-0.8,0-1.2,0-1.6c0-0.4,0-0.8-0.7-0.7
		c-0.7,0.1-0.6-0.1-1.2-0.6c-0.6-0.5-1.4-0.7-0.9-0.9c0.6-0.2,1.4,0.5,1.4-0.2c0-0.6-0.6-1-0.6-1s-0.6-0.6-0.6-1.2
		c-0.1-1.5-1-1.8-0.2-2.1c0.8-0.2-0.1,2,1.1-0.3c1.2-2.3,0.7-3.1,1.3-3.3c0.6-0.2-0.2,1.5-0.2,2.8c0.1,1.3-0.3,0.5,0.1,1.3
		c0.4,0.8,1,0.6,1,1.3c0.1,0.6-1.2,0.9-0.4,1.6c0.8,0.6,1.4,0.2,1.5-0.4c0.1-0.6-0.2-1,0.4-1.4c0.6-0.4,0.8-0.6,0.8-0.8
		c0-0.2,0.5-0.6,0.3-1.2c-0.2-0.6-0.7-0.9-0.7-1.4c0-0.5-0.2,0.2-0.3-0.8c0-0.4-0.1-0.8-0.1-1c0.2,0.4,0.6,0.9,0.9,0.8
		c0.5-0.1,0.7-0.1,1-0.1c0.2,0,0.1,0.2,0.6-0.2c0.6-0.4,2.5-1.7,2.1-2.2c-0.3-0.5,0.2-0.8,0.2-1.4c0.1-0.6,0.6-1,0.3-1.5
		c-0.2-0.5-1.1-0.2-1.1-0.8c0-0.6,0.2-1.2,0.4-1.4c0.2-0.2,1-0.5,1-0.5l-0.2,1.6l1.2-0.9c0,0,0.2-0.2,0.6-0.4
		c0.5-0.2,0.6-0.8,1.1-0.7c0.6,0.1,1.1-0.1,1.6,0c0.5,0.1-0.6,0.9,1-0.2c1.5-1,2.2-0.3,2.5-0.4c0.8-0.2,0.4,0.1,0.8-0.2
		c0.4-0.3,0.9-1.2,0.9-1.2s0.6,0.1,0.9-0.2c0.3-0.3,1.4-0.6,1.3-1c-0.2-0.3-0.3-0.6-0.6-1.1c-0.3-0.6,0.2-0.4-0.2-1.2
		c-0.4-0.8-0.9,0.2-0.4-0.8c0.5-1,0.6-0.6,0.6-1.5c0-0.9,0-1.4,0.8-1.8c0.8-0.4,0.6-0.8,1.4-1.4c0.8-0.6-0.6-0.6,1-1
		c1.7-0.4,0.7,0.3,1.3,0.1c0.6-0.2,1.5-0.1,1.5-0.4c0-0.3,0.6-1.2,0.6-1.2c0.4-0.7,1.1-0.6,1.4-0.6c0.2,0,1.4-0.2,1.4-0.2l2.1-0.6
		c0,0,0.4-0.1,0.5-0.3c0.1-0.2,0.4-1,0.6-0.7c0.2,0.2,1.1,0.7,1.1-0.1c0,0,0,0,0,0c0.3-1.5,0.2-1.5-0.2-1.3c0,0,0,0,0,0
		c0-0.1,0-0.2,0.1-0.2c0.7,0.2,1.7,0.4,2.1-0.1l0.8-1c0,0,0.8,0.9,1,0.7c0.2-0.2,1.4-0.6,1.8-0.6c0.3,0,1.1-0.3,1.4-0.4
		c0.3-0.1,0.2-0.9,0.6-0.9c0.3,0-0.2,0.1,0.3,0c0.5-0.1,0.3,0.8,0.3,0.8c-0.3,0.6-0.2,0.9,0.4,0.7c0.6-0.2,1.4-0.5,1.7-0.4
		c0.3,0.1,0.9,0.3,0.8,0.7c-0.1,0.4,0.2,0.7-0.7,0.7c-0.9,0,0.3-1-1.6-0.1c-1.9,0.9-1.5,0.5-2,0.6c-0.5,0.1,0-0.6-1,0.2
		c-1,0.7-1.4,1.1-2.1,1.8c-0.7,0.6-0.8,1.2-1.4,1.6c-0.6,0.4,0.2,0.6-0.1,1.2c-0.2,0.6-0.3,1.1,0.3,1.1c0.6,0,1,0.5,1.7,0.3
		c0.6-0.2,1.9-0.3,2.2-0.7c0.3-0.4,1.9-1.3,2.1-1.9c0.1-0.6,0.6-1.1,0.9-1.2c0.3-0.1,1-0.6,1.8-0.6c0.8-0.1,2.2-0.5,2.7-0.6
		c0.6-0.2,1.7-0.5,2.5-0.6c0.7-0.2,2.4-0.8,2.6-1.1c0.2-0.3,1-0.9,1-0.9l1.4-0.1c0,0-0.8-0.5-1-0.9c-0.2-0.4,0.4-1.4-0.1-1.2
		c-0.5,0.2-0.9-0.4-1.7,0c-0.9,0.4-1.2,0.6-1.4,0.9c-0.2,0.3-0.3-0.6-0.9-0.6c-0.6,0-1.8,0.6-2.4,0.6c-0.6,0.1-0.9-1.2-0.9-1.2
		l-1.4,0.1c-0.8-0.2-1.3-1-1.3-1c-0.7-0.4-1.2-0.5-1.2-0.5s-0.6-0.4-0.7-0.6c-0.2-0.2-0.1-0.9-0.1-0.9s-0.1-0.7-0.3-0.7
		c-0.2,0-0.8-0.8-1-1c-0.4-0.6-0.8-1.2-0.8-1.2s1.7-1.4,1.6-1.8c-0.2-0.5-0.3-0.8-0.6-1c-0.3-0.2-2.3,0.9-2.2,0.6
		c0.1-0.3-0.2-0.6-0.4-0.7c-0.2-0.2-0.8-0.7-0.8-0.7s2.9,0.1,3.4-0.3c0.5-0.4,1-0.5,1.5-0.9c0.5-0.5,1.3-1,1.4-1.4
		c0.1-0.5-1-0.7-1.4-1.1c-0.3-0.4-0.7-0.9-1.2-1.3c-0.5-0.4-2.2-0.6-2.2-0.6s-0.9-0.2-1.2-0.1c-0.3,0.2-2.2,0.5-2.4,0.6
		c-0.2,0.2,0,0.1-0.8,0.4c-0.8,0.3-1,0.6-1.4,0.6c-0.4,0.1-0.5,0.1-1.6,0.4c-1.1,0.3-1.3,0.1-1.7,0.5c-0.5,0.4-1.4,1-2.2,1.4
		c-0.7,0.3-0.2,0.2-1.4,1c-1.2,0.8-2.1,1.7-2.7,2.2c-0.6,0.5,0.6-0.6-1.2,0.9c-1.7,1.4-2.6,2.2-2.6,2.2c-0.3,0.7,0.7-1.8,0.7-1.8
		s1.5-1,1.8-1.3c0.3-0.2,1.1-1,1.4-1.4c0.2-0.3,0.6-0.6,0.8-1.1c0.2-0.5,0.1-0.6,0.6-0.8c0.6-0.2,1.4-0.5,1.7-0.9
		c0.2-0.4,0.8-1.3,1-1.4c0.2-0.2,1-0.6,1-0.6s0.5-0.2,0.7-0.2c0.2,0,0.9,0.1,1.1-0.1c0.2-0.2,1.6-1,1.6-1l1-1.1c0,0,1.2-1.4,1.4-1.5
		c0.2-0.1,2-0.9,2-0.9l1-0.3c0,0,4-0.2,4.3-0.2c0.3,0,0.6-0.2,1.3-0.2c0.6-0.1,1.8-0.6,2.1-0.4c0.1,0.1,0.4,0.3,0.7,0.5
		c0.2,0.1,0.4,0.3,0.5,0.3c0.2,0.2,1-0.2,1.4,0c0.3,0.2,2.3-0.2,2.3-0.2l0.8,0.6h2.9c0,0,1.2-0.4,1.6-0.3c0.4,0.1,2.5-1.1,2.8-1.2
		c0.2-0.1,0.9,0.2,1.4-0.5c0.5-0.6,2.8-1.4,2.8-1.9c0-0.6,1.1-1.3,1.3-1.5c0.2-0.2,1-0.2,1.4-0.3c0.4-0.1,1.7,0,2.2-0.3
		c0.6-0.3,1.6-0.7,1.8-0.6c0.2,0.2,2.1-0.6,2.1-0.6l1.4-1.1l0.6-1.1l-1-1.2l-0.4-1c0.4-1,1.3-1.1,1.2-1.8c-0.1-0.7-0.6-0.9-0.5-1.5
		c0.1-0.6,0.8-1,0.2-1.3c-0.6-0.4-1.7-1-2.2-1.2c-0.6-0.2-1.7-0.3-2.2-0.4c-0.5-0.1-0.9,0.6-1,0.8c-0.1,0.2,0.2,0.9-0.3,1
		c-0.6,0.2,0-0.5-0.2-1.8c-0.2-1.4-0.5-1.3-1.1-1.3c-0.6,0-1.8,0.2-2.2,0.4c-0.4,0.2-1.5,0.9-1.5,0.9l-1.2,0.6c0,0-0.1,0.2-0.9,0.7
		c-0.8,0.5-1.9,1.1-2.1,1.1c-0.2,0-0.8-0.1-1.2-0.5c-0.4-0.4-0.3-0.9,0.1-1c0.4-0.1,2.3,0.2,2.4-0.2c0.1-0.4,1-0.7,1.1-1
		c0.1-0.2,0.5-0.2,0.7-0.6c0.2-0.4,0.6-0.7,0.9-0.6c0.2,0.2,1.6,0.2,1.8-0.1c0.2-0.2,1.4-0.4,1.4-0.4l1.3-0.5l1.1-0.6
		c0,0-1.4-0.5-1.6-0.7c-0.6-0.8,0.2-1.7-0.6-1.6c-0.8,0.1-1.3,0.1-2,0.4c-0.7,0.3-0.7,0.7-1.1,0.2c-0.4-0.6-0.2-1-0.4-1.2
		c-0.2-0.2-0.6-1.2-1-0.7c-0.4,0.5-0.6,0.4-1,0.9c-0.4,0.6-1.1,0.5-1.1,0.5s0.4-0.9,0.4-1.1c0-0.2-0.8-0.5-1.1-0.5
		c-0.3,0-0.6-0.4-0.9-0.2c-0.2,0.2-0.5-1.6-0.5-1.6s-0.2-0.4-0.6-0.9c-0.4-0.5,0.1-0.3-0.4-0.5c-0.5-0.2,0.6,0-0.5-0.2
		c-1-0.2,0,0.5-0.3,0.5c-0.3,0-0.6-1-1-1c-0.4-0.1-0.5-1.3-0.9-1.3c-0.3,0-0.2-0.9-0.8-0.7c-0.6,0.2-0.9-0.6-0.9-0.6
		s-1.1-0.6-0.1-0.7c1-0.2,1.6-0.3,1.6-0.3s0.6-1.1,0.2-1.1c-0.4,0-0.3-1.4-0.8-1.5c-0.5-0.2-0.6-0.6-1-1c-0.5-0.4-0.5-1-0.2-1
		c0.2-0.1,1.3-0.3,0.6-0.8c-0.6-0.5-1.1-0.9-1.8-1.2c-0.6-0.3-0.6-0.6-1.1-0.6c-0.5-0.1,0-0.4-0.4-1c-0.4-0.6-0.3-0.9-0.7-0.9
		c-0.4,0-0.6,0.3-1-0.2c-0.4-0.6,0-2.3-0.2-2.3c-0.1,0-0.3-0.1-0.4-0.3c-0.1-0.2-0.3-0.5-0.8-1c-1.7-2.2-0.3-0.4-0.4-0.7
		c-0.1-0.3,0-0.6-0.2-0.8c-0.2-0.2-0.7-0.2-1.1-0.7c-0.4-0.5-0.2-1.4-0.8-1.5c-0.6-0.1-0.4-0.4-0.6-1c-0.2-0.6-0.1-1.4-0.4-1
		c-1.5,1.6-1.1,1.5-1.5,2.1c-0.4,0.6-0.2-0.4-0.4,0.5c0,0,0,0,0,0c-0.2,1-1.3,0.3-1.4,0.9c-0.1,0.6,0.2,0.6,0.4,1.1
		c0.2,0.5,0.6,0.6,0.3,1c-0.3,0.3-1-0.6-1,0.3c0,0.9-0.7,1.1-0.6,1.4c0.2,0.3,1.8-0.5,0.4,0.6c-1.4,1.1-0.6,2.4-1.2,2.3
		c-0.9-0.2-0.8-1.8-1.4-1.4c-0.6,0.3,0.2-0.4-0.6,0.3c-0.9,0.7-0.3-0.1-0.9,0.7c-0.2,0.3-0.3,0.3-0.3,0.4c0,0,0.1,0.1,0.1,0.3
		c0.1,0.6-0.5,0.4-1,0.6c-1.3,0.6-0.9-0.2-1.3,0.6c-0.9,0.6-0.2-0.8-0.7-0.9c-0.6-0.1,0-0.6-0.9,0.2c-0.9,0.9-0.2,0.5-0.9,0.9
		c-0.7,0.4-1.3,0-0.8-0.8c0.5-0.8,0.9-1.2,0.6-1.3c-0.2-0.1,0-1.2-0.6-1.7c-0.6-0.5,0.3-0.5-0.6-0.5c-0.9,0-2.6,0.9-2.8,1
		c-1,0.6,0,1.4-1,0.6c-1-0.7-1.4-1.9-0.8-1.8c0.6,0.2,0.8,0.5,1.2,0.3c0.4-0.2,0.7,0.1,0.8-0.3c0-0.2,0.1-0.1,0.1-0.1
		c0-0.1-0.1-0.2-0.2-0.7c-0.3-1.3-0.1,1.2-0.4-0.6c-0.3-1.8-1-1.5-1-2.1c-0.1-0.6-0.2-0.8-0.2-1c0-0.2,0.4-0.4,0.4-1.3
		c0-0.9-0.3-0.8-0.3-1.3c0-0.5-1,0.2,0.1-1.4c1.1-1.5,1.1-2.1,1.1-2.1c-1-0.3-0.8-0.4-1.4-0.4c-0.6,0-0.3,0.3-1.4,0.4
		c-1,0.1-0.4-0.8-0.6-0.7c-0.2,0.1-1.6,0.3-1.6,0.3l-0.7-0.2c-0.7-0.6-1.3-0.6-1.7-0.6c0,0-0.6-0.7-0.6-1c-0.2-1,0.1-1.2-0.3-1.4
		c-0.4-0.2-0.5-0.9-1-0.9c-0.6,0-1.3-0.3-1.5-0.2c-0.2,0.1-0.1-0.6-0.2-0.9c-0.2-0.2,0-0.7-0.7-1c-0.7-0.3,0.1-1.1-1.4-1
		c-1.5,0.1-1.3,0.4-1.3,0.4c-1.2-0.4-1.9-0.3-2.5-0.1c-0.6,0.2-0.4,0.2-1.1,0.6c-0.7,0.3-0.2,0.8-0.7,0.3c-0.6-0.5-0.6-0.7-0.9-0.8
		c-0.4-0.1-0.6-0.3-1-0.1c-0.4,0.2-0.1-0.5-0.7,0.1c-0.6,0.6-0.6,0.6-1,0.1c-0.3-0.6,0-0.9-0.5-1c-0.5-0.1,0.4-1-1-0.4
		c-1.4,0.6-1.8,0.5-2.1,0.2c-0.3-0.2-0.6-1-1.2-0.8c-0.6,0.2-0.9,0.2-1.4,0.6c-0.6,0.4-1.3,0.2-1.7,0.8c-0.4,0.6-0.5,0.1-0.5,1.2
		c0,1.1,0.6,0.6,0.8,1.6c0.2,1,0.4,1.1,0.6,1.7c0.2,0.6,0.8-0.2,0.2,0.6c-0.6,0.9-0.1,1.8-0.3,2.2c-0.2,0.5-0.2,0.6-0.4,1.1
		c-0.2,0.5-0.2,0.4,0.2,1c0.4,0.6,1,1.1,1,1.7c0,0.6,0.2,0.7,0.1,1.1c-0.1,0.4,0.5,0.8,0.6,1.1c0.1,0.3,0.4,1.3,0.1,1.5
		c-0.3,0.2-1.4,0.1-1.4,0.5c-0.2,1.2-0.1,1.2-0.7,1.9c-0.6,0.7-1.3,0.9-1.3,0.9s-0.2,0.6-0.4,0.9c-0.2,0.3-1.4,1.4-0.9,1.4
		c0.6,0.1,2,0.2,2.9,1c0.9,0.8,2.2,0.6,2.2,1c0,0.3,0.4,0.2,0.8,1c0.4,0.8,1,1.2,1.1,1.8c0.2,0.6,0.4,0.6,0.4,1c0,0.4,0,0,0.1,0.8
		c0.1,0.8,0.6,0.3-0.2,2.1c0,0-0.3,1.2-0.2,1.8c0.2,0.6,0.3,1.3,0.3,1.3s-0.1,0.8-0.3,1c-0.2,0.2,0,0.9-1.1,1.4
		c-1.1,0.5-1.8,0.7-2.2,1.2c-0.4,0.5-0.7,0.8-1.4,1.3c-0.6,0.6-0.3,0.3-0.6,0.6c-0.3,0.2-1.1,0.7-1.4,0.8c-0.3,0.1-1.1-0.1-1.8,0.2
		c-0.6,0.2-0.5-0.8-1.2-0.2c-0.7,0.6-0.8,0.5-0.8,1.1c0,0.6,1.4,1.4,1.4,1.7c-0.1,0.2-0.1,0.1,0,1c0.1,1,0.2,1,0.3,1.4
		c0.2,0.4,1.2,0.6,0.8,1.1c-0.4,0.6-0.1,0.5-0.2,1.2c-0.2,0.7,0.2,0.9,0.2,1.8c-0.1,0.9,0.2,1.8,0.4,2.1c0.2,0.3,0.9-0.2,1,0.6
		c0.1,0.7,0.6,1.1,0.5,1.4c-0.1,0.3-0.6,0.2-0.8,0.4c-0.2,0.2-0.4,0.7-0.6,1c-0.2,0.3-0.6,0.6-0.3,0.8c0.7,0.7,1.1,0.9,1,1.3
		c-0.2,0.4-0.8,1.5-1,1.2c-0.2-0.3-0.8-0.7-1-0.8c-0.8-0.4-0.7-0.8-1.3-0.1c-0.6,0.7-0.6,0.2-0.6,1c0,0.8,0.4,0.5,0.7,1.3
		c0.3,0.8-0.7-1-1.4-1.4c-0.7-0.4-1.5-0.2-1.7-0.1c-1.2,0.6-1.5,0.6-1.8,1c0,0,0.1-0.2,0.6-0.6c0.5-0.4,0.6-0.8,0.6-0.8
		c0.3-0.6,0.3,0.1,0.3-0.6c0-0.7,0.2-1-0.1-1.1c-0.3-0.1-0.6-0.4-1-0.6c-0.4-0.2,0.5-0.3-0.6-0.6c-1-0.3-1.2-0.9-1.5-1
		c-1-0.1-1.8,1-1-0.1c0.4-0.6,0.7-0.8,0.8-0.9c0.2,0.2,0.6,0.3,0,0c0,0,0-0.1-0.1-0.1c-1-0.7-0.8-1-1.3-1.1
		c-0.5-0.1-0.2-0.3-0.7-0.4c-0.5-0.1-0.3-0.5-0.6-0.8c-0.3-0.3-0.5-0.4-0.4-0.6c0.1-0.2,0.2,0.1,0.3-0.7c0.2-0.8,0.2-0.8,0.2-1.2
		c0-0.4,0.6-0.4,0-1c-0.6-0.6-0.6-1.6-0.6-1.6l0.1-0.9c0,0-0.6-0.5-0.6-0.8c0-0.3,0-1.1,0.2-1.3c0.2-0.2,0.6-0.6,0.6-1
		c0.1-0.3,0.8,0.3-0.3-1.2c-0.1-0.2-0.2-0.3-0.3-0.4c0-0.4,0.4-0.1-0.1-0.5c-0.6-0.4-1.2-0.5-1.7-0.5c-0.5,0.1-1,0.2-1.6,0.2
		c-0.6,0.1-1.7,0.2-2.1-0.1c-0.4-0.2,0-0.8-0.7-0.8c-0.7,0-0.8,0-1.6,0.1c-0.8,0.1-0.6-0.2-1.4,0.2c-0.8,0.4,0,0.1-0.8,0.4
		c-1.2-1.7-0.6-2.2-1.8-2.1c-1.1,0.1-1.1,0-1.4-0.2c-0.9-0.4,0.3-0.6-1.4-1.1c-1.8-0.6-1.9-0.6-2.3-0.5c-0.4,0.1-0.7,0.2-1-0.1
		c-1-1,0.2-1.1-1.1-1.7c-1.3-0.6-1.2-0.6-1.4-0.9c-0.2-0.3-0.8-0.5-1-0.6c-0.2-0.2-1.1-0.4-1.1-0.4l-0.9-0.2c-1-0.4-1-0.9-1.4-0.9
		c-0.5,0-0.6-0.5-1.2-0.3c-0.6,0.2-0.7,0.5-1.1,0.2c-0.4-0.3-0.2-0.7-0.7-1c-0.5-0.3-0.5-0.5-1-0.6c-0.5-0.1,1-0.5-1-0.1
		c-2,0.4-2.2,0.1-2.8,0.4c-0.6,0.3-1.3,0.6-1.7,0.8c-0.5,0.2-1,0.2-1.4,0.2c-0.4,0-1.1,0.1-1-0.2c0.2-0.3,0-0.2,0.6-0.8
		c0.6-0.6,0.8-0.7,0.7-1c-0.1-0.2,0-0.2-0.6-1c-0.6-0.8-0.6-1-0.7-1.4c-0.2-0.4-0.1-0.9-0.6-1.4c-0.5-0.5-0.3-1-0.5-1.4
		c-0.2-0.4,0.6,0-0.4-0.7c-1-0.7-1-0.6-1.7-0.8c-0.7-0.2-0.9-0.4-1.1-0.3c-1,0.4-1.9,1-1.7,0.8c0,0-0.2-1.8-0.3-1.5c0,0-0.6-0.8-1-1
		c-0.3-0.2-0.8-0.4-0.5-0.7c0.3-0.3,0.6-0.6,0.6-0.9v-1.2c0-0.6,0.7-1.6,0.5-2.3c-0.2-0.7-0.2-0.4-0.2-1.2c-0.1-0.8-0.4-0.7,0.1-1.2
		c0.5-0.5,1.5-0.9,1.4-1.3c-0.1-0.5,0.9-1.1,0.8-1.5c-0.1-0.4,0.5-0.2,0.5-1.4c0-1.1,0.2-1.4,0.5-1.4c1-0.2,1.7-1,1.7-1
		s0.2-0.6,0-0.9c-0.2-0.3-0.3-0.6,0.2-0.7c0.6-0.2,1.3-0.5,1.3-0.5l0.7-0.4c0,0,0.4-0.8-0.1-1c-0.5-0.2-0.4-0.7,0-0.8
		c0.4-0.1,1.6-0.4,1.6-0.4l0.7-0.2c-0.4-0.9-0.7-1.4-0.4-1.3c0.3,0.1,1.4,0,1.4,0s0.5,0.3,0.7,0.4c0.2,0.1,1.4-0.3,1.4-0.3l0.6-0.6
		l0.9-0.1c0,0,0.6-0.8,0.3-1c-0.3-0.2-1-0.5-1.2-0.9c-0.2-0.4,0.2-0.3-0.6-0.9c-0.7-0.6-0.9-0.8-1.4-0.7c-0.6,0.1-0.7,0.2-1,0.1
		c-0.3-0.1,0.2-1.1-0.6-0.9c-0.9,0.2-1.4,0.7-1.4,0.4c-0.1-0.3-0.2-0.7-0.2-0.7s-0.3-0.2-1-0.5c-0.7-0.2-1.3-0.9-0.9-0.6
		c0.4,0.2,2.8,0.7,2.8,0.7s-0.3,0.3-0.2,0.5c0.2,0.2,0.3-0.2,1-0.2c0.7,0.1,0.9,0.4,1.1,0.6c0.2,0.2,1.1,0.3,1.4,0.3s1,0.5,1,0.5
		c1,0.2,1.8,0.2,2.2,0.1c0,0-0.2-0.2,0.2-0.3c0.3-0.1,0.9-0.2,0.9-0.2s0.2-1,0.2-1.2c0-0.2-0.1-1-0.1-1c0.9-0.2,1.1,0.2,1.1,0.2
		l1,0.6h0.8c0,0,1.3-0.3,1.3-0.1c0,0,0.7-0.1,1-0.2l1.4-1l1.1-0.4c0,0,0.1-0.7,0.3-0.9c0.2-0.2,1.2-1.2,1.2-1.2l0.1-0.6l1.1-0.9
		l0.2-0.7l-0.1-1.5h-0.8c0,0-0.6-0.3-1.1-0.3c-0.2,0-0.3-0.1-0.4-0.1c1,0.1,1.8-0.1,2.2-0.4c0.4-0.3,0.5-0.6,0.9-0.9
		c0.5-0.3,0.8-0.7,1-0.9c0.9-0.6,0.9-0.7,1.2-1c0.7-0.7,0.5-0.6,0.8-1.1l0.3-0.5c0,0-0.7-1.1-1-1.1c-0.2,0-1.1-0.4-1.1-0.4
		s0-0.6,0.2-0.7c0.2-0.1,0.8-0.2,0.8-0.2c0.8,0.4,1.4,0.3,1.4,0.3l0.7-0.3l0.9,0.7c0.4,1.1,0.6,0.9,0.9,1.2c0,0,0.8,0.3,1.1,0.3
		c0,0,0.4-0.1,0.6-0.2l0.7-0.7c0,0,0.3,0.3,0.9,0.2c0.6-0.2,0.6,0.3,1,0.4c0.8,0.2,0.8-0.1,1-0.4c0.2-0.3-0.6-1.1-0.6-1.1l-0.6-0.7
		l-0.9-0.9c-0.8-0.5-0.3-0.7-1.1-0.6c-0.8,0.1-1.4-0.1-0.6-0.2c0.8-0.2,0.2,0,0.8-0.2c0.2,0,0.3-0.2,0.3-0.3c0,0,0,0.1,0.1,0.1
		c0.5,0.8,0.5,0.7,0.8,0.8c0.3,0.1,0.5,0.3,0.7,0.4c0,0,0.9,0.9,1,1.1c0.1,0.2,0.5,0,0.7,0.4c0.5,0.9,0.8,1,0.8,1
		c0.7,0.6,1.4,0.9,1.4,0.9c-0.6-1.1-0.8-0.6-0.6-1.1c0.2-0.6-0.3-0.3,0.2-0.6c0.5-0.2-1-0.2,0.5-0.2c1.4-0.1,2.1-0.6,2.1-0.6
		c0.1-0.7-0.8-0.6,0.1-0.7c0.9-0.1,0.9-0.6,0.9-0.6l0.5-0.8c0,0,0.4-0.1,0.8-0.2c0.4-0.1,0.5-0.3,0.8-0.7c0.6-0.8,0.4-0.8,0.6-1.1
		c0.5-0.9,0.6-1.4,0.3-1.5c-0.3-0.2-1.4-0.6-1.4-0.6s-0.3-0.6-0.9-1c-0.6-0.4-1.1-0.2-1.2-1c-0.1-0.8,0.7,0.3-0.1-0.8
		c-0.8-1.1-0.5-0.7-0.8-1.1c-0.3-0.4-0.6,0.1-0.3-0.4c0.3-0.5-0.4-0.6,0.3-0.5c0.7,0.1,1-0.2,1.3,0c0.2,0.2,0.5,0.3,0.7,0.2
		c0.2-0.2-0.1-0.6,0.2-0.6c0.2-0.1,0.4-0.4,0.7-0.3c0.8,0.2,1-0.2,1.2-0.4c0,0,0.5-1,0.2-0.9c-0.2,0.1-0.7-0.5-1-0.4
		c-0.3,0.1-0.6,0.5-0.7,0c-0.1-0.5-1-0.3,0-0.8c1-0.5,1,0,1-0.5l-0.3-1.1c-1.1-0.6-1.7-0.3-2.4-0.6c-0.6-0.2-0.6,0.1-1-0.3
		c-0.4-0.4-0.1-0.7-0.4-0.8c-0.3-0.1-1.5,0.2-1.3,0c0.2-0.2,0.2-0.5,0.8-0.6c0,0,0.2-1-0.2-1c-0.3,0-1.4,0.5-1.4,0.5s-0.7,0.1-1,0
		c-0.2-0.1-0.4-0.7-1.1-0.7c-0.7,0-1.3-0.2-1.5-0.2c-0.2,0-1.4,0.2-1.4,0.2s-1-0.6-1.3-0.4c-0.2,0.2-1.7,0.4-1.7,0.4s-0.1-1-0.8-0.2
		c-0.7,0.8-0.1,0.7,0.2,0.7l0.2,1.4c0.2,1-0.7,0.6,0.2,1c0.9,0.4,0.9-0.6,1.4,0.6c0.6,1.2-0.3,0.6,0.6,1.2c0.9,0.6,1.7-0.2,0.9,0.6
		c-0.8,0.7-1.5,1-1.5,1s-0.3-0.2-0.8,0.2c-0.5,0.4-1-0.9-1.1,0.2c-0.1,1,0,1.5-0.2,1.7c-0.6,0.9-0.6,0.6-0.6,1.4
		c0,0.9,0.5,1.1-0.2,1.3l-0.6,0.2l-0.6,0.7c-0.7,0.6-0.9,0.6-1.1,1c-0.2,0.5-0.3,0.2-0.1,0.8c0.2,0.6,0,1.1,0,1.1l-1.1,0.2
		c-1.1,0.6-1.3,0.4-1.4,0.8c-0.4,1.1-0.3,1.5-0.4,1.1c-0.1-0.4-0.2-1.5-0.2-1.5c-0.6-0.9-1-1.3-1-1.3s-1.4-1-1.4-1.2
		c-0.2-1-0.2-1.4-0.3-1.9c-0.2-0.5-0.6-0.6-0.2-1c0.5-0.4,0.5-1,1-0.7c0.6,0.3,0.3,1.2,0.6,0.3c0,0,0.3-0.5,0.2-0.9
		c-0.1-0.4-0.6-1.2-0.6-1.2v-1l-0.6-0.9l-0.5-0.9l-0.8,0.2l-1-0.6l-1-0.3c0,0-0.1-0.2-0.4-0.3c-0.3-0.2-0.9-0.4-1.4,0
		c-0.5,0.4-0.8,0.6-0.9,1c-0.1,0.3-0.8,0.6-0.7,0.8c0.3,1,0.1,0.3-0.4,0.8c-0.9,0.9-1,1.1-1.1,1.6c-0.1,0.5-0.2,0.9-0.2,0.9
		s-0.2-1-0.2-1.7c0.1-0.7,0-1.2,0.2-1.4c0.2-0.2,1.4-0.4,0.2-0.9c-1.1-0.5-1.5-0.3-1.5-0.6c0.1-0.9,0.6-0.9,1-0.8
		c0.3,0.1,0.9,0.4,0.7-0.1c-0.3-1,0-1.2-0.6-1.3c-0.6-0.1-0.7-0.7-1-0.6c-0.3,0.2-0.9-0.6-1.1-0.6c-0.2-0.1-0.5-0.6-0.8-0.6
		c-0.3-0.1-0.6-0.6-0.9-0.1c-0.3,0.5,0.4,0.6-0.2,0.9c-1,0.4-1.7-0.1-2.1-0.1c-1,0-1.5-0.6-1.1-1c0.4-0.3-1.9,1.3,0.4-0.3
		c2.3-1.6,2.5-1.8,2.8-1.5c0.3,0.2,0.6,0.3,0.7,0c0.1-0.3,0.2-1.1-0.2-1.3c-0.4-0.2-0.3-0.7-1-0.9c-0.7-0.2,0.1,0.2-0.7-0.2
		c-0.8-0.4-0.9-0.6-1.4-1.2c-0.5-0.6-1-1.1-1-1.4c0-0.2-0.6,0-0.7-0.2c-0.3-0.8-0.1-1.3-0.1-1.7c0-0.4,0.2-0.2-0.2-0.9
		c-0.4-0.7-1-1.3-1.2-1.4c-0.2-0.1-1.3-1.7-1.5-1.7c-0.2,0-0.5-0.1-0.8-0.1c-0.3,0-1.2-0.5-1.4-0.4c-0.2,0.1-0.5-0.3-0.7-0.2
		c-0.2,0.1-0.5-0.6-0.5-0.6s1-0.2,1.5-0.2c1-0.1,1.7-0.8,1.7-0.8l0.4-1l1.1-1l-0.5-0.7c0,0,0.1-0.1-0.2-0.6c-0.2-0.5,0.2,0-0.2-0.5
		c0,0,0.8-0.2,1.2-0.2c0.4,0,2-0.4,2-0.4s0.9-0.1,1.2,0.2c0.8,0.6,3-0.5,2.7-0.5c0,0,0.6-0.2,0.6-1.4c0.1-1.2,0.1-1.7,0.3-1.6
		c0.2,0.1,0.9-0.2,0.9-0.2s0.2-0.6,0.6-0.7c0.3-0.2,0.7-0.5,0.9-0.8c0.2-0.3,1-1.8,1-2c0.1-0.2-0.2-1-0.2-1s-0.7-0.3-1-0.3
		c-0.2,0-1-0.5-1.4-0.4c-0.4,0.1-1.7,0.1-2,0.1c-1.1-0.2-2,0.1-2,0.1s-0.2-0.6-1-0.6c-0.7,0-0.5-0.5-1.2-0.5c-0.7,0-1.2,0.2-1.8,0.2
		c-0.6,0.1-1.4-0.1-2,0c-0.6,0.1-1.2-0.2-1.8-0.1c-0.6,0.2-0.9-0.2-1.7,0.2c-0.8,0.4-0.6,0.2-1,0.7c-0.4,0.5-0.7-0.2-0.4,0.5
		c0.3,0.7,0.3,1.5,0.3,1.5s-0.2-0.6-0.7-0.5c-0.5,0.2-0.6-0.3-0.8,0.2c-0.2,0.5,0,0.5-0.2,1.3c-0.2,0.8-0.2,0.2-0.2,0.8
		c0,0.6,0.3,1,0,1.8c-0.3,0.8-0.4,1.1-0.4,1.4c0,0.3-0.2,0.8,0.1,1c0.2,0.2,0,0.2,0.6,0.7c0.6,0.5,0.5,1,0.7,1.4
		c0.2,0.4,0.3,0.6,0.4,1.1c0.1,0.5-0.3,1-0.3,1.6s0.2,1,0.2,1c-0.1,1,0.3,0.3-0.1,1c-0.4,0.6-0.9,0.3-1.2,0.7
		c-0.6,0.9-0.4,0.6,0,0.9c0.4,0.3,0.7,1,0.5,1c-0.9,0.2-1.8-0.2-1.8-0.2s-0.3,0.1-0.7,0.5c-0.4,0.4-0.6,0.8-1,1.4
		c-0.3,0.6-0.3,0.4-0.3,1c0,0.6-0.4,1.3-0.1,1.7c0.3,0.5,0.2,0.2,0.8,0.6c0.6,0.3,0.7,0.5,1.1,0.6c0.4,0.1-0.8,0.8-1,1.2
		c-0.2,0.4-0.4,0.9-0.3,1.4c0.2,1.1,0.8,1.6,0.9,1.9c0.1,0.3,0.7,0.4,0.9,0.6c0.2,0.2,0.9,0.1,0.9,0.1l0.9,0.3l1.2,0.3
		c0.7,0.6,2,1,2,1l1.2,0.2c0,0,0.2,0.3,0.5,0.4c-0.2,0-0.3,0.1-0.4,0.4c-0.3,0.9-0.6,0.2-0.3,0.9c0.2,0.7,0.6,0.6,0.6,0.9
		c0,0.2-0.8,1-0.8,1s-0.9,0.8-0.6,0.8c1,0.2,1.7,0.2,1.9-0.1c0.2-0.2,0.2-0.4,0.5-0.7c0.2-0.3,0.5-0.9,0.5-0.9s0.6,0.6,0.4,1
		c-0.2,0.3-0.1,0.8-0.2,1c-0.2,0.9,0.5,0.6-0.2,1.2c-0.6,0.6-1.7,1.6-1.7,1.6s-0.4-0.3-0.7,0.3c-0.3,0.6-0.7,0.4-1.3,0.6
		c-0.6,0.2-0.2-0.2-1,0.2c-0.8,0.4-0.3-0.2-1.1,0.3c-0.8,0.6-0.6-0.7-0.8,0.6c-0.2,1.3-1,1.2-0.6,1.6c0.4,0.4,0.8,0,1,0.9
		c0.2,0.9,0.3,0.8,0.5,1.4c0.2,0.6,0.2,0.5,0,1.1c-0.2,0.5-0.4,0.9-0.5,1.1c0-0.1,0-0.2-0.1-0.4c-0.3-1.4-0.2-1.9-0.6-1.8
		c-0.3,0.1-0.7-0.1-1-0.2c-0.8-0.2-1.2-0.4-1.4-0.8c-0.2-0.4-0.6-0.7,0-1c0.6-0.3,1.1-0.6,1.1-0.8v-0.9c0-0.2,0.1-0.8,0.1-0.8
		c-0.5-0.6-0.2-1.2-0.6-1c-1,0.5-0.9,0-1,0.5l-0.4-0.7c-1,0.4-0.2,0.2-1,0.4c-1-0.3-1-0.4-1.1-0.8c-0.2-0.4,0-0.7-0.3-0.8
		c-0.9-0.2,0.1-0.3-0.9-0.2c-1,0.1-1.2-0.5-1.4,0.2c-0.2,0.6,0.5,0.3-0.2,0.6c-0.7,0.3-1,0.6-1.2,0.4c-0.2-0.2-0.5-0.4-0.7-0.3
		c-1,0.4-1.4-0.2-1,0.4c0.5,0.6,0.7,0.2,0.8,0.7c0.1,0.4-0.1,0.7,0,0.9c-0.2,0-0.5,0-0.7,0.1c0,0-0.2,0.3-0.1,1.1
		c0.2,0.8-0.5,1-0.7,1c-0.2,0-0.7-0.6-0.7-0.6s0.6-1.1-0.6-0.6c-1.3,0.6-1.1,0.2-1.1,0.2s-0.6,0.2-1.2,0.2c-0.6,0-1.4,0-1.7,0
		c-1,0.2-1.8,0.4-1.8,0.4s-0.6,0-0.9,0.1c-1.1,0.3-1.5,0.2-1.8,0.3c-0.2,0.2-0.8,0.4-0.9,0.2c-0.1-0.2,0.1-0.7-0.2-0.7
		c-0.9-0.1-1.4-0.1-1.7-0.1c-0.2,0,0.8,0.2-0.2,0c-1-0.2-1.2-0.3-1.4-0.6c-0.7-0.9-0.3-1.1-1-1c-0.7,0.1-0.6-0.5-1.1-0.1
		c-0.6,0.4-0.8-0.2-1.4,0.1c-0.6,0.2-0.6,0.6-1,0.2l-0.7-0.6c-0.8-0.5-0.8-0.7-1-0.8c-0.2-0.1,0.2-0.2-0.7-0.5
		c-1-0.2-1.4,0.2-1.6-0.6c-0.2-0.7-0.2-0.2-0.2-0.7c-0.1-0.5,0.2,0-0.1-0.5c-0.3-0.5-0.2-0.7-0.6-1.2c-0.4-0.5-0.1-0.8-0.6-0.8
		c-0.5,0-0.6-0.2-1.1-0.2c-0.5,0.1,0.4-0.2-0.5,0.1c-0.9,0.3-0.8,0.3-1.5,0.6c-0.7,0.3,0.2,0-0.7,0.3c-0.9,0.3-1.6,0.3-1.9,0.6
		c-0.3,0.2-1.4,0.2-1.8,0.3c-0.5,0.1-1.1,0.2-1.4,0.3c-0.2,0.1-0.3-0.2-0.9,0.3c-0.6,0.5-0.9,0.8-1,1c-0.1,0.2-0.3,0.5-0.3,0.8
		c0,0,0.7,0.7,1.1,0.9c0.4,0.2,0.2,0,0.9-0.1c0.8-0.1,1.2,0.2,1.2,0.2s0.6-0.6,0.8-0.6h0.2c0,0-0.3-0.6,0.3-0.5
		c0.6,0.1,1.3-0.2,1.3-0.2s0.4,0.2,0.8,0.1c0.4-0.1,0.6-0.4,0.9-0.4c0,0,1.1-0.6,1.4-0.6c0.2,0,0.6-0.1,0.9-0.2c0,0,0.6-0.6,0.9-0.6
		c0,0,0.5,0.1,0.2,0.6c-0.2,0.6-0.7,0.6-0.9,0.7c-0.2,0.1-1.1,0.2-1.1,0.2c-0.9,0.8-1.6,1-1.6,1s-0.6-0.3-0.8-0.1
		c-0.2,0.2-0.2-0.1-0.6,0.2c-1.1,0.8-1.3,0.6-1.6,0.9c0,0-0.6-0.1-0.8,0.7c-0.2,0.8-0.8,0.3-0.2,0.8c0.6,0.5,0.6,0.6,0.9,1
		c0.2,0.5,0.5,1,0.5,1c0.6,0.7,1,0.7,1.1,1c0.2,0.3,0.1,0.2,0.2,0.9c0.2,0.6,0.3,1,0.3,1s-0.6-0.8-1-0.6c-0.7,0.4-1.3-0.3-1,0.2
		c0.5,0.7,0.7,1.5,0.7,1.8c0,0.3,0.3,0.1,0.3,0.6c0,0-1.3-1.5-1.6-1.5c-0.3,0-0.9,0.1-1.1-0.2c-0.2-0.2-0.7-0.6-0.2-0.9
		c1-0.6,1.3-1,1.3-1s0.3-1,0-0.9c-0.3,0.2-0.2-0.6-0.5-0.7c-0.3-0.1-0.9-0.3-1.2-0.2c-0.9,0.2-1.1,0.5-1.4,0.2
		c-0.6-0.6-0.9-1.4-0.9-1.4l0.1-0.7c-1-0.1-1.9-0.5-2.1-0.6c-1-0.5-1.1-1-1.1-1c-0.6-0.2-1.3-0.1-1.8,0.2c-0.5,0.3-0.9,0.5-1.3,0.3
		c-0.4-0.2-0.6-0.7-1-0.1c-0.3,0.6-0.5,1.3-0.5,1.3s-1.1-0.1-1.4,0c-0.2,0.1-0.5-0.1-1,0c-0.6,0.1-0.9,0-1.2,0.2
		c-0.3,0.2-0.5-0.2-0.9-0.1c-0.4,0.2-0.4-0.4-1,0c-0.6,0.4-1.2,0.6-1.2,0.6s-0.2-0.2-0.7-0.2c-0.6,0.1-0.7-0.5-1.2-0.4
		c-0.5,0.2-0.5-0.2-0.9,0c-0.4,0.2-0.7,0.4-0.9,0.2c-0.6-0.8-0.2-0.6-0.6-0.8c-0.5-0.2-0.3-0.6-1-0.4c-0.6,0.2-0.6,0.1-1,0.2
		c-0.4,0.1-0.3-0.3-0.7-0.2c-0.4,0.1-0.5-0.4-0.5-0.4s-0.1-0.2,0.7-0.6c0.8-0.4-0.1-0.4,1-0.7c1-0.3,1.1-0.6,1.5-0.5
		c0.7,0.2,0.9-0.3,0.9-0.3s0.4-0.5,0.1-0.6c-0.3-0.2-1.8-1.5-2-1.7c-0.2-0.2-2-0.7-2.1-1c-0.1-0.2-0.7-0.5-1.3-0.6
		c-0.6-0.2-1.3-0.2-1.8-0.2c-0.6,0.1-0.8,0.2-1.4,0.6c-0.9,0.6-0.4,0.1-1.6,0.1s-1.7,0-2-0.2c-1.6-0.8-0.7-0.6-1.6-0.8
		c-0.9-0.2-1.4,0-1.7-0.3c-0.3-0.3-0.2-0.5-0.9-0.8c-0.7-0.3-0.5-0.6-1.4-0.6c-0.9,0-1.4-0.2-2-0.2c-0.6,0.1-0.4,0.2-1.1,0.1
		c-0.7-0.2-0.6-0.4-1.1-0.8c-0.6-0.4-0.4-1-1.2-1c-0.8,0.1-2.9-0.6-2.9-0.6s-0.6-0.2-1-0.3c-0.5-0.1-1.4-0.5-1.9-0.4
		c-0.5,0.1-1.5-0.1-2.2-0.1c-0.6,0-1.2,0-1.7,0.3c-0.5,0.3-0.1-0.2-0.5,0.7c-0.4,1-0.5,1-0.9,1.2c-0.4,0.2-1,0.5-1.3,0.4
		c-0.3-0.1-1.1,0.3-1.1-0.3c0-0.6-0.3,0.1,0-0.6l0.3-0.7c0,0-0.5,0-0.7-0.1c-0.2-0.1-0.3-0.6-0.2-1c0.2-0.4,0.2-0.8,0.1-1.2
		c-0.1-0.4,0.4-0.9-0.2-0.9c-0.6,0.1-1.1,0-1.5,0.3c-1.2,0.9-1.4,0.6-1.2,0.9c0.2,0.3,0.3-0.3,0.6,0.2c0.2,0.6,0.2,1.4-0.2,1.5
		c-0.4,0.2-0.3-0.8-0.7-0.1c-0.4,0.7-0.4,0.9-0.5,1.4c-0.1,0.6-0.6,0.7-0.6,0.7s-0.9-1-1.1-1c-0.2,0-1-0.4-1.4-0.6
		c-0.3-0.2-0.5-0.3-0.9-0.8c-0.4-0.5-0.3-1.3-1-1.6c-0.6-0.2-0.2-1-0.6-1.3c-0.4-0.3-0.7-0.5-1.2-1.1c-0.5-0.6-0.2-1-1-1.2
		c-0.7-0.2-0.9-0.4-1.4-0.5c-0.5-0.1,0.3-0.3-0.5-0.1c-0.1,0-0.2,0-0.3,0c0.2,1.2,0.3,1.3,0.5,1.9c0.2,0.6,0.7,0.8,0.5,1.1
		c-0.2,0.3-0.8,0-1,0.4c-0.8,1.2-0.3,0.4-0.8,1.2c-0.5,0.8-0.9,0.6-1.1,0.7c-0.8,0.6-1.1-0.1-1.1-0.1c-1,0-1.9-0.2-2.2,0.1
		c-0.3,0.2,0.2-0.1-0.7,0.4c-0.9,0.5-0.9,0.5-1.5,1c-0.6,0.5,0.9-0.8-0.6,0.5c-1.4,1.3-1.9,1.2-1.9,1.2s0-0.6-0.8-0.6
		c-0.8,0-0.9-0.5-1.3-0.2c-0.4,0.3-0.5,0.2-0.9,0.6c-0.4,0.4-0.6,0.6-0.9,0.7c-0.2,0.2-0.5-0.3-0.9,0c-0.4,0.3-0.8,0.6-1,0.7
		c0,0-0.3,0.5-0.1,0.9c0.2,0.4,0,0.8,0,0.8l-0.8,0.2c-0.5,0.7,1,1.3-0.5,0.7c-1.4-0.6-2-1-1.5-1.3c0.5-0.2-0.2-0.1,0.5-0.2
		c0.2,0,0.2,0,0.2,0c0,0,0.1,0,0.1-0.1c0.9-0.4,0.9-0.6,1.3-0.8c0.4-0.2,0.8-0.6,0.8-0.6s0.1-0.3,0.7-0.6c0.6-0.3,0.6-0.5,1.2-0.6
		c0.6-0.1-0.2,0.5,0.6-0.1c0.8-0.6-0.2-0.6,1.1-0.9c1.4-0.2,0.5-0.2,1.8-0.3c1.3-0.1,1.7-0.4,1.9-0.5c0.2-0.1,0.9-0.4,0.9-0.4
		s0.8-0.4,1.1-0.6l2-1.4c0,0,0.6-1,0.2-1c-0.5,0.1-0.4-0.3-1,0c-0.6,0.3-0.9,0.1-1.4,0.5c-0.5,0.4-0.9,0.1-1.1,0.2
		c-0.2,0.1-0.1-0.5-0.9-0.1c-0.8,0.5-0.9,0.3-1.5,0.8c-0.6,0.5,0,0.1-0.6,0.5c-0.6,0.4-1.1,0-1.5,0.2c-0.4,0.2-0.6,0.3-0.9,0.7
		c-0.3,0.4-0.3,0-0.9,0.2c-0.6,0.2-1-0.2-1.6,0.2c-0.6,0.5-0.9,0.2-1.1,0.8c-0.2,0.6-0.2,0.3-0.6,0.9c-0.4,0.6-0.6,0.1-1,0.2
		c-0.4,0.2-0.3-0.6-0.9-0.1c-0.6,0.5-1.1,0.7-1,0.5c0.6-1,1-1,0.6-1c-0.3-0.1-0.5-0.6-1-0.6c-0.5,0-0.4-0.3-0.9-0.3
		c-0.5,0-0.6-0.3-0.9,0.3c-0.2,0.6,0.6,0.2-0.2,0.6c-0.8,0.5,0,0.5-0.8,0.5c-0.8,0-2.1,0-2.5,0.3c-0.4,0.3-0.2-0.2-1,0.6
		c-0.7,0.7-0.8-0.1-0.7,0.7c0.1,0.8-0.1,0.6,0.4,1c0.5,0.3,1,0.2,1.3,0.6c0.3,0.3,0.1,0.3,0.4,0.9l-1.4-0.7c0,0-1.2-0.5-1.8-0.6v0
		c0,0,0,0-0.1,0c-0.3,0.1-1.4,0-1.7,0.1c-0.2,0.1-1.5,0.2-1.8,0.2c-0.3-0.1-1.6-0.2-1.9-0.5c-0.3-0.2-0.2-0.6-1.1-1
		c-0.9-0.4-0.8-0.3-1.6-0.9c-0.8-0.6-0.7-0.7-1-0.9c-0.1,0-0.1-0.1-0.2-0.1l0.1-1c0,0-0.8-0.2-1.1,0c0,0,0,0,0,0c0,0-0.1,0-0.1,0
		c-0.2,0.1-0.3,0.1-0.4,0.2c-0.2,0.1-0.3,0.1-0.6,0.2c-0.6,0.2-1.4-0.4-2-0.2c-0.6,0.2-1-0.2-1.7,0.1c-0.6,0.2-1,0.2-1.3,0.2v0
		c0,0-0.1,0-0.1,0c0,0-0.1,0-0.1,0c-0.3,0-0.2-0.1-0.7-0.3c-0.5-0.2-0.4-0.3-1-0.7c-0.6-0.4-0.6-0.3-1.1-0.6
		c-0.5-0.2-0.3-0.6-0.8-0.7c0.1,0-0.1-0.1-1.3-0.4c-2.6-0.7-2.2-0.5-2.2-0.5s-1-0.5-1.7-0.5c-0.7,0.1-2.3,0.6-2.3,0.6
		s-0.2,0.2-0.8,0.3c-0.6,0.2-1.1-0.1-1.7,0c-0.6,0.1-1.6,0.1-1.8-0.2c-0.2-0.2-0.1-0.3-0.6-0.6c-0.5-0.2-0.6-0.3-1-0.6
		c-0.4-0.2,0.1-0.8-1.1-0.6c-1.3,0.2-1.8,0.6-2.4,0.5c-0.6-0.1-0.6-0.1-1.3,0.2c-0.7,0.2-1,0.5-1.3,0.2c-1.3-0.8-1.7-1.1-1.7-1.1
		s-1-0.1-1.3-0.2c-0.2-0.2-1-0.5-1.3-0.4c-0.2,0.1-0.4-0.1-0.8-0.2c-1.4-0.2-1.4-0.1-2.1-0.2c-0.6-0.1-1.4,0.1-1.4,0.1
		c-0.9,0.2-1.4,0.2-1.7,0.2c-0.3,0.1-0.9,0-0.9,0s-0.1-1-1-0.4c-1,0.6-1.1,0.5-1.6,0.6c-0.5,0.2-0.1,0.6-0.5,0.2
		c-0.4-0.5,0.1,0-0.4-0.5c-0.5-0.5-0.7-0.9-0.7-0.9c-0.7,0-1.4,0.4-1.7,0.1c-0.7-0.7,0.2-1.2-0.1-1.4c-0.7-0.5-0.9-0.6-1.5-0.7
		c-0.6-0.1-0.6-0.8-1.5-0.5c-1,0.3-1,0.6-2,0.6c-1,0-0.7-0.4-1.5-0.1c-0.8,0.3-0.1,0.6-0.8,0.3c-0.7-0.2-0.4-0.7-0.8-1
		c-0.8-0.5-0.3-0.6-1.1-0.6c-0.8,0.1-0.8-0.4-1.1,0c-0.9,1.3-0.2,1-0.9,1.3c-0.7,0.2-1.3,0.1-1.2-0.2c0.2-0.7,0.2-1.1,0.6-1
		c0,0,0.9-0.5,0.5-0.7c-0.4-0.2-1.4-0.4-1.7-0.4c-0.3,0-1.5,0-1.6-0.2c-0.4-0.7-0.5-1-1.1-0.5c-0.6,0.5-1.5,0.8-1.9,1.4
		c-0.4,0.6,0.2,0.6-0.9,1c-1.1,0.4-1.6,0.6-2.2,0.7c-0.6,0.1-1.1-0.1-2.1,0c-1,0.1-1-0.2-1.4-0.2c-1.6,0.2-1.6,0.4-2.4,1
		c-0.8,0.6-0.5,0.5-1.1,0.8c-0.6,0.3-0.7,0.4-1,0.9c-0.2,0.5,0,0.2-0.7,0.6c-0.7,0.4-0.6,0.2-1.1,0.3c-0.5,0.2-0.8,0.3-0.8,0.3
		s-2-1.2-2.6-0.5c-0.6,0.7-2,0.8-2.5,2.2c-0.5,1.3-2.2,1.8-2.2,2.6c0,0.8,0.8,0.6-0.2,1.7c-1.1,1.1-2.2,1.4-2.9,2
		c-0.7,0.6-2.7,0.8-2.7,0.8l-1.1-0.3l-1.1,0.5h-1.7c-1.2,1-1.3,0.1-1.2,1c0.1,0.8-1.1,1.4-1.2,1.8c-0.1,0.4,1.2,0.5,1.5,0.8
		c0.4,0.4-0.4,0.5,0.5,0.8c0.8,0.4,2.4,1.4,2.9,1.3c0.5-0.1,0.7-0.1,1.3,0.1c0.6,0.2,1.6,0.2,1.7,0.8c0.1,0.6,1,1.1,1.1,1.4
		c0.1,0.4-0.2,1.1,0.4,1.2c0,0,1,1.2,1.3,1.4c0,0,0.9,0,1.1,0.5c0.2,0.4,0.6,0.4,0.8,0.3c0.2-0.1,0.3,0,0.7-0.2
		c0.4-0.2,0.4-0.3,0.6-0.2c0.2,0.1,0.6,0.2,0.6,0.2c0.4-0.4,0.4-0.4,0.5-0.6c0,0,0.4,0.1,0.6,0.2c0.2,0.1,0.6,0.2,0.6,0.2
		c0.6,0.2,1.1,0.3,1.1,0.3s0.2,0.2,0.2,0.3c0,0.2-0.1,0.3-0.2,0.4c-0.4,0.1-0.4,0.4-0.3,0.5c0.2,0.1,0.3,0.2,0.3,0.4
		c0,0-0.2,0.3,0.3,0.5c0.6,0.2,0.9,0.5,0.9,0.5l0.7-0.1c0,0,0.4-0.3,0.8-0.2c0.3,0,0.2,0,0.6,0c0.4,0,1.5-0.1,1.5-0.1l0.6,0.3
		l-0.1,0.8c0,0-0.2,0-0.4,0c-0.2,0-0.4-0.4-0.8-0.2c-0.4,0.2-0.4,0.4-0.7,0.4c-0.2,0.1-0.5,0-0.7,0.2c-0.2,0.2-0.2,0.1-0.1,0.4
		c0.1,0.3,0,0.5-0.2,0.5c-0.2,0-0.5-0.4-0.7-0.3c-0.2,0.1-0.6,0.2-0.8,0.3c-0.2,0.1-0.1,0.2-0.3,0.4c-0.5,0.4-0.4,0.3-0.8,0.4
		c-0.4,0.2-3.3,0-3.4-0.1c-0.1,0-0.4-0.2-0.8-0.2c-0.4,0-0.4-0.1-0.8,0.1c-0.4,0.2-0.3-0.2-0.7,0c-0.4,0.2-1,0.2-1,0.2
		s-0.2-0.2-0.3-0.4c-0.1-0.2,0.2,0.1-0.1-0.3c-0.3-0.4-0.4-0.3,0-0.7c0.4-0.4,0.5-0.7,0.5-0.7s0.1-0.3-0.1-0.4
		c-0.2-0.2-0.2-0.5-0.5-0.5c-0.3,0-0.6-0.1-0.8-0.1c-0.2,0,0.6-0.4-0.4,0c-1,0.4-1.8,0.8-2,0.7c-0.2-0.1-0.8-0.5-1,0
		c-0.3,0.4-0.3,0.4-0.7,0.5c-0.4,0.1-0.7-0.2-0.9,0c-0.2,0.2-0.3-0.1-0.5,0.3c-0.2,0.4-0.3,0.3-0.2,0.6c0.1,0.4,0.6,0.7,0.4,0.8
		c-0.2,0.1-0.6-0.1-1.1-0.1c-0.4,0-0.8-0.1-1.1,0c-0.4,0.1-0.4,0-0.7,0.1c-0.3,0.2-0.4,0-0.9,0.4c-0.5,0.4-0.5,0.4-0.7,0.6
		c-0.2,0.2-0.2,0.1-0.5,0.2c-0.2,0.1-0.4,0.2-0.7,0c-0.3-0.1-1.3,0.4-1.3,0.4c-0.4,0.3-1.2,0.6-1.2,0.7c0,0.7,0.2,1.4,0.4,1.4
		c0.2,0,0.5-0.1,0.6,0.1c0.1,0.2,0.9,0,0.9,0.3c0,0.2,0.6,0.2,0.8,0.3c0.2,0,1.2-0.2,1.3-0.1c0.1,0,0.5-0.1,0.8,0.1
		c0.3,0.2,0.5,0,0.9,0.2c0.4,0.2,0.8,0.3,0.3,0.5c-0.4,0.2-1.4,0.3-1.6,0.4c-0.2,0.1-0.6-0.5-0.8,0c-0.2,0.4,0.1,0.6,0.3,0.7
		c0.2,0.1,0.5,0.4,0.6,0.9c0.1,0.4,0.5,0.5,0.5,0.8c0,0.3-0.1,0.7,0.1,0.8c0.2,0.1,0.8,0.2,0.8,0.2s0.6,0,0.8,0.2
		c0.2,0.2,0.6,0.4,0.8,0.4c0.2,0,1,0.1,1,0.1s0.6,0,0.7,0c0.1,0-0.2,0,0.4,0c0.5,0,1.4,0,1.4,0l1.6-0.3c0,0,0.1,0,0.4-0.2
		c0.3-0.2,0.7-0.4,0.8-0.3c0.2,0.2,0.4,0.5,0.9,0.5c0.5,0,0.8-0.1,1-0.2c0.3,0,0.5-0.3,0.7,0.1c0.2,0.4,0.3,0.4,0.4,0.6
		c0,0.2,0.5,0.1,0.7,0c0.4-0.1,0.4-0.1,0.7,0c0.2,0.1,0.3,0.4,0.6,0c0.3-0.4,0.7-0.6,0.9-0.8c0.2-0.2,0.2-0.3,0.5-0.4
		c0.3-0.2,0.8-0.4,0.8-0.4s0.4-0.1,0.6-0.2c0.2-0.1,0.2-0.1,0.6-0.2c0.4-0.1,0.7-0.3,0.9-0.3c0.2,0,0.6-0.3,0.8-0.2
		c0.5,0.1,0.8,0.1,0.9,0.3c0.1,0.2,0.1,0.4,0.1,0.6c0,0.2,0.1,0.4-0.2,0.5c-0.2,0.1-0.2,0-0.4,0.2c-0.2,0.2-0.2,0.2-0.4,0.4
		c-0.2,0.2-0.3,0.5-0.3,0.7c0,0.2,1,1.1,1,1.1s0.6,1,0.5,1.1c-0.1,0.1,0.1,0.5,0,0.7c0,0.2,0.2,0.4-0.2,0.6
		c-0.4,0.2-0.1,0.3-0.4,0.5c-0.3,0.2,0.4,0.1-0.1,0.6c-0.6,0.5-0.9,0.6-1.1,0.7c-0.2,0.1-1.4,0.3-1.6,0.2c-0.2-0.1-0.7-0.2-0.7-0.2
		s-0.2-0.1-0.5,0c-0.3,0.1-0.2,0-0.6,0.2c-0.4,0.2-0.7,0.3-1,0.6c-0.3,0.3-0.2,0.4-0.4,0.5c-0.1,0.2-0.4,0.6-0.4,0.6l-0.6,0.2
		c-0.4,0-0.6,0-0.8,0.1c-0.2,0,0-0.2-0.4-0.1c-0.4,0.2-0.6,0.2-0.7,0.2c-0.4-0.2-0.5-0.2-0.6-0.5c-0.1-0.3,0.3-0.2-0.1-0.3
		c-0.4-0.1-0.7-0.1-1-0.1h-0.6c-0.2,0-0.8,0.3-0.9,0.4c-0.2,0.1,0,0.1-0.3,0.4c-0.3,0.3-0.4,0.6-0.6,0.8c-0.5,0.4-0.4,0.1-0.5,0.6
		c-0.1,0.5,0,0.7,0.1,0.8c0.2,0.2,0.5,0.4,0.5,0.4s-0.1,0.3-0.2,0.5c-0.2,0.5-0.6-0.1-0.9,0c-0.3,0.1-0.5,0.1-0.7,0.4
		c-0.2,0.2-0.3,0.4-0.6,0.5c-0.3,0.2-0.4-0.2-0.6,0.3c-0.2,0.6-0.3,0.5-0.5,0.9c-0.2,0.4,0.3-0.4-0.2,0.4c-0.5,0.8-0.4,0.8-0.3,1.1
		c0.1,0.4-0.2,0.4-0.5,0.8c-0.3,0.4-0.6,0.1-0.6,0.5c0,0.4-0.1,0.5,0.1,0.8c0.2,0.3,0.7,0.7,0.7,0.9c0,0.2,0,0.1,0.1,0.4
		c0.1,0.3,0.5,0.4,0.6,0.6c0.1,0.1,0.3,0.2,0.4,0.2c0.2,0,0.6-0.1,0.6-0.2c0.1-0.1,0.4-0.4,0.5-0.6c0-0.2,0.5-0.7,0.5-0.7
		s0.3-0.3,0.4-0.4c0.1-0.2,0.6-0.4,0.6-0.4l-0.4,0.9c-0.5,0.3-0.8,0.3-0.9,0.6c-0.1,0.3,0,0.2-0.1,0.6c-0.1,0.4-0.1,0.4,0,0.6
		c0.1,0.2,0.2,0,0.6,0.2c0.3,0.3,0.7,0.2,0.8,0.4c0,0.2-0.1,0.4,0,0.5c0.1,0,0.6-0.1,0.8,0c0.2,0,0.8-0.1,0.6,0.2
		c-0.2,0.3-0.1,0.5,0.2,0.4c0.4-0.2,0.9-0.3,0.9-0.3s0.2-0.2,0.4-0.2c0.2,0-0.4,0,0.2,0c0.6,0,0.2-0.1,0.6,0c0.4,0,0.2-0.5,0.5,0.2
		c0.3,0.7,0.4,0.7,0.3,0.9c-0.2,0.2-0.6,0.5-0.7,0.5c-0.1,0-0.4-0.2-0.4-0.2s-0.7-0.9-0.8-0.6c-0.1,0.3-0.2,0.4-0.4,0.5
		c-0.6,0.3-0.8,0.2-0.8,0c0-0.3-0.1-0.4-0.3-0.6c-0.2-0.1-0.1-0.5-0.4-0.4c-0.2,0-0.4,0.1-0.6,0.1c-0.2,0,0-0.2-0.5,0
		c-0.5,0.2-0.2,0-0.6,0.5c-0.4,0.5-0.4,0.6-0.6,0.7c-0.2,0.1-0.6,0.4-0.4,0.4c0.2,0,1.1,0,1.2,0.1c0.4,0.6,0.3,0.5,0.5,0.7
		c0.2,0.2,0-0.4,0.7,0.4c0.7,0.9,1.4,1.1,1.4,1.3c0,0.2,0,0.6,0.2,0.8c0.1,0.2,0.2,0.2,0.4,0.3c0.2,0.1,0.4,0,0.6,0.2
		c0.2,0.2,0.2,0.2,0.8,0.1c0.6,0,1.6-0.3,1.6-0.3s0.2,0.4,0.4,0.2c0.2-0.2,0.8-0.4,0.9-0.5c0.1-0.2,0.8-0.6,0.8-0.6s0.2-0.1,0.4-0.2
		c0.2-0.1,0.5-0.6,0.5-0.6s-0.1-0.5-0.1-0.9c0-0.4-0.7,0.1,0.3-0.8c1-0.8,1.2-1.2,1.3-1c0.2,0.3,0,0.5-0.2,0.8
		c-0.2,0.2-0.5,0.4-0.6,0.7c-0.1,0.3,0,0.3,0,0.6c0,0.3,0.2,0.7,0.4,1.1c0.1,0.4,0.2,0.4,0.2,0.7c0,0.3,0.4,0.6,0.4,0.9
		c0,0.3-0.2,0.2,0,0.3c0.2,0.1,0.7,0.2,0.8,0.5c0,0.3,0.1,0.7,0,0.8c-0.1,0.2-0.1-0.1-0.4,0.2c-0.3,0.3-0.6,0.7-0.5,0.9
		c0,0.2,0.1,0.5,0.4,0.6c0.3,0,0.4,0.2,0.6,0.4c0.2,0.2,0.3,0.4,0.1,0.6c-0.2,0.2-0.2,0.4-0.1,0.6c0,0.3-0.2,0.8-0.2,0.8
		S58,290,58.8,290c0.8,0,1.1-0.1,1.4-0.2c0.2-0.1-0.4,0.1,0.8-0.3c1.2-0.4,2.2-1,2.2-1s1.1-0.8,1.2-0.5c0.2,0.4,0-0.1,0.2,0.4
		c0.2,0.4,0.4,0.4,0.7,0.4c0.3,0,0.4-0.2,0.4,0.1c0,0.3,0.6,0,0.6,0l0.3-0.3c0,0,0.3,0.4,0.4,0.6c0.4,0.7,0.9,0.7,1,0.9
		c0.4,0.7,0.6,1,0.6,1c0.4,0.1,0.6,0.2,0.6,0.2l0.4-0.5l0.2-1.5l0.6-0.4c0,0,0.2-0.2,0.2-0.4c0-0.2-0.2-0.7-0.1-0.9
		c0.1-0.2,0.4-0.4,0.4-0.4s0.4,0.5,0.6,0.5c0.1,0,0.6,0.7,0.5,0.8c-0.1,0.1-0.6,0-0.8,0.2c-0.2,0.2-0.3,0.2-0.4,0.6
		c-0.1,0.3-0.3,0.4,0.1,0.6c0.4,0.2,0.8,0.1,0.8,0.2c0.1,0.1,0.4,0.4,0.4,0.4l1.4-0.7l0.4-0.4l1-0.3c0,0,1.1-0.6,1.2-0.8
		c0.1-0.3,0.1-0.4,0.4-0.6c0.3-0.2,0.6-0.7,0.7-0.4c0.1,0.3,0,1.1-0.2,1.3c-0.2,0.2-0.5,0.6-0.7,0.8c-0.2,0.2,0.2,0.4-0.1,0.5
		c-0.3,0.2-1.2,0.4-1.5,0.8c-0.4,0.4-0.5,0.1-0.4,0.6c0.1,0.5,0.5,0.6,0.5,0.8c0,0.3-0.2,0.6-0.3,0.7c-0.1,0.1-0.4,0.2-0.4,0.4
		c0,0.2-0.1,0.7-0.1,1c-0.1,1-0.4,0.9-0.2,1.4c0.2,0.4,0.6,0.4-0.1,0.6c-0.6,0.1-1,0-1.2,0.1c-0.2,0.1-0.4,0.2-0.6,0.5
		c-0.2,0.3-0.1,0.2-0.6,0.3c-0.4,0.2-0.6,0.3-0.7,0.6c-0.2,0.3-0.4,0.3-0.4,0.6c0,0.3,0.2,0.1-0.1,0.5c-0.4,0.4,0,0.2-0.4,0.4
		c-0.4,0.2-0.5,0.2-0.8,0.3c-0.3,0.1-0.1-0.4-0.7,0c-0.6,0.4-0.6,0.6-1,0.8c-0.5,0.2-0.4,0.2-0.7,0.4c-0.3,0.1-0.7,0.2-0.9,0.4
		c-0.2,0.2-0.3,0.4-0.8,0.8c-0.4,0.4-0.5,0.2-0.8,0.4c-0.4,0.2-0.4,0-0.4,0.4c0,0.4,0.2,0.4,0,0.8c-0.2,0.4-0.4,0.4-0.5,0.5
		c-0.5,0.2,0,0.1-0.9-0.1c0,0-0.5,0.2-0.6,0.1c-0.2-0.1-1.2,0-1.2,0s-0.5,0.2-0.6,0.2c-0.1,0-0.3-0.1-0.6,0c-0.3,0.2-0.2,0-0.4,0.2
		c-0.3,0.3-0.6,0.3-0.8,0.5c-0.2,0.4-0.6,0.5-0.7,0.7c-0.1,0.2-0.2,0.2-0.4,0.4c-0.2,0.2-0.3,0.2-0.4,0.6c0,0.4-0.5,0.6-0.5,0.6
		c-0.4,0.1-0.7,0-0.7,0.2c0,0.2-0.4,0.1-0.6,0.2c-0.2,0.1-0.5-0.2-0.6,0.1c-0.1,0.2-0.4,0.2-0.2,0.4c0.2,0.2,0.4,0.4,0.6,0.4
		c0.2,0,0.4,0,0.4,0.2c0,0.2,0,0.5,0.2,0.5c0.2,0,0.6,0,0.6,0s0.4,0,0.4-0.1c0-0.1,0.3-0.7,0.3-0.7l0.4-0.1l0.4,0.7l0.6-0.6
		c0,0,0.2,0,0.4-0.1c0.2-0.1,0.7-0.5,0.7-0.5s0.2-0.2,0.2-0.4c0-0.2,0.1-0.5,0.3-0.6c0.4-0.1,0.3-0.5,0.5-0.5c0.7-0.1,0.9-0.2,0.9,0
		c0,0.2,0.2,0.3,0.2,0.4c0,0.1-0.2,0.4,0.4,0.2c0.6-0.2,0.6-0.2,0.7-0.4l1,0.1c0.2,0.3,0.5,0.6,0.6,0.5c0.2-0.1,0.4-0.2,0.5-0.4
		c0.1-0.2,0.4-0.6,0.4-0.6l0.1-0.5l1.1-0.3c0,0,0.1-0.3,0.2-0.5c0-0.2,0.6,0.2,0.6,0.2c0.3,0.4-0.1,0.8,0,0.8c0.1,0,1-0.2,1-0.2
		l0.2-0.4l0.5-0.5l1.5-0.7c0,0,0.2-0.2,0.4-0.1c0.2,0,0.6-0.1,0.8,0c0.2,0.1,0.4-0.2,0.6-0.2c0.1,0,0.2,0,0.4-0.3
		c0.1-0.2,0.3-0.6,0.3-0.6s0.5,0,0.4-0.1c0-0.1-0.4-0.6-0.5-0.7c-0.1-0.1-0.1-0.3,0.1-0.4c0.2-0.1,0.5-0.2,0.7-0.4
		c0.2-0.2,1.5-0.9,1.5-0.9l0.4-0.2c0,0,0.4-0.2,0.5,0c0.1,0.2,0.6-0.5,0.7-0.5c0.1,0,0.8-0.3,0.8-0.3c0.4-0.2,0.8-0.4,0.8-0.4
		c0.7-0.7,1.2-1.7,1.2-1.7s0-0.3,0-0.4c0-0.1-0.2-0.4,0.1-0.4c0.3,0,0.7-0.1,0.8-0.1c0.2,0,0.8-0.3,0.8-0.3s0.2-0.4,0.3-0.5
		c0.1-0.1,0.9-0.5,0.9-0.5l1-0.4l0.4-0.4l1.1-0.4l0.4-0.3c0,0,0.2-0.2,0.4-0.2c0.5,0.1,1.2-0.2,1.2-0.2c0.2-0.3,0.3-0.8,0.3-0.8
		s0.1-0.2,0.2-0.5c0-0.2,0.1-0.4,0.2-0.4c0.6-0.5,0.8-0.6,0.8-0.6l0.5,0c0,0,0.4,0,0.5-0.2c0.1-0.2,0-0.1,0.2-0.5
		c0.2-0.4,0.4-0.5,0.3-0.7c-0.1-0.2-0.1-0.1-0.2-0.5c0-0.4,0-0.8-0.2-0.8c-0.3,0.1-0.8-0.2-1-0.2c-0.2,0-0.6,0.2-0.8,0.1
		c-0.2,0-0.5-0.1-0.4-0.4c-0.1-0.3,0.3-1.2,0.4-1.2c0.1,0,0.2,0.2,0.4-0.2c0.2-0.3,0.2-0.4,0.5-0.6c0.3-0.2,0.5-0.4,0.6-0.4
		c0.1-0.1,0.2-0.2,0.4-0.3c0.2-0.1,0.9-0.4,1-0.4c0.1,0,0.8-0.3,0.8-0.3c0.3-0.3,0.8-0.7,0.8-0.9c0-0.2,0-0.4,0.2-0.6
		c0.2-0.2,0.6-0.5,0.6-0.5v-0.5c0,0,0-0.4,0.2-0.6c0.2-0.1,0.4-0.4,0.4-0.4s0.6-0.3,0.7-0.4c0-0.1,0.2-0.3,0.3-0.4
		c0.1-0.1,0.1-0.3,0.4-0.6c0.3-0.2,0.5-0.4,0.8-0.6c0.3-0.1,0.6-1,0.8-1c0.2,0,0.1-0.2,0.5-0.4c0.4-0.3,0.5-0.4,0.7-0.4
		c0.2,0,0.6-0.2,0.8-0.3c0.2-0.1,0.4-0.4,0.6-0.5c0.2-0.1,0.7-0.3,0.9-0.2c0.2,0.1,0.4-0.2,0.6,0.1c0.2,0.3,0.5,0.3,0.7,0.1
		c0.2-0.2,0.3-0.2,0.5-0.3c0.2-0.2,0.9-0.2,1-0.4c0.2-0.2,0.6-0.6,0.9-0.6c0.3-0.1,1,0,0.6,0.2c-0.3,0.2-0.5,0.2-0.8,0.6
		c-0.3,0.3-0.3,0.3-0.4,0.6c-0.1,0.3-0.5,0.5,0,0.6c0.4,0.1,0.2,0,0.7,0.3c0.5,0.3,1.1,0.4,0.8,0.6c-0.6,0.3-1,0-1.3-0.1
		c-0.3-0.2-0.6-0.2-1-0.1c-0.3,0.2-0.2,0-0.6,0.2c-0.4,0.1-0.8,0.2-1,0c-0.2-0.2-0.4-0.4-0.4-0.4s0.1-0.5-0.4-0.2
		c-0.5,0.3-0.9,0.2-1.1,0.7c-0.2,0.5,0,0.5-0.3,0.7c-0.3,0.2-0.4-0.1-0.7,0.1c-0.3,0.2-0.3,0.2-0.3,0.4c0,0.2-0.1,0.2-0.1,0.5
		c0,0.3,0.2,0,0.2,0.5c0,0.5,0.1,0.2-0.2,0.7c-0.3,0.5-0.8,0.7-0.8,0.9c0,0.2-0.4,0.4-0.5,0.7c-0.1,0.3-0.5,0.2-0.5,0.5
		c0,0.4,0.2,0.2,0,0.7c-0.2,0.5-0.7,0.3-0.2,0.5c0.4,0.2,1.2,0.1,1.3,0.2c0.2,0,0.9,0.1,0.9,0.1s0.1,0.2,0,0.4
		c-0.1,0.2,0,0.6-0.5,0.8c-0.4,0.2-0.7,0.4-0.9,0.4c-0.2,0-0.7-0.2-0.8-0.1c-0.1,0.1-0.4,0.2-0.3,0.4c0.2,0.3,0.2,0.6,0.3,0.6l0,0
		c0,0,0.1,0,0.4,0c0.7,0,2.2-0.3,2.5-0.3c0.3,0-0.5,0.7,0.6-0.2c1.2-0.9,1.4-1,1.8-1.3c0.4-0.3,0.5-0.4,0.8-0.5
		c0.3-0.2,1.2-0.6,1.4-0.6c0.2,0,0.6,0,0.8-0.2c0.2-0.2,0.2-0.2,0.7-0.5c0.5-0.3,0.4-0.4,0.8-0.3c0.4,0.1,0.6,0.1,0.8,0
		c0.2,0,0.2,0,0.5-0.2c0.3-0.1,0.8-0.4,0.8-0.4s1.1-1.1,1.3-1.3c0.1-0.2,0.4-0.4,0.4-0.7c-0.1-0.3,0.4-0.4-0.2-0.4
		c-0.6,0-0.6,0.2-0.8-0.2c-0.2-0.4-0.5-0.5-0.4-0.8c0.1-0.3,0.2-0.5,0.5-0.7c0.3-0.2,0.6-0.2,0.7-0.4c0.1-0.2,0.1-0.4,0.2-0.7
		c0.2-0.3,0.4-0.5,0.6-0.6c0.1,0,0.6-0.1,0.6-0.1l-0.4,1c0,0,0.1,0.6,0.2,0.8c0.1,0.2,0.4,0.2,0.6,0c0.2-0.2,0.4-0.5,0.4-0.5
		s0.3-0.2,0.5-0.1c0.2,0,1,0.2,1,0.2s0.4-0.3,0.5-0.1c0.1,0.2,0.8-0.1,0.9-0.1c0.1,0,0.1-0.4,0.4-0.4c0.3,0.1,0.5,0.3,0.5,0.7
		c0.1,0.4,0.6,0.3,0.7,0.5c0.1,0.2,0.3,0.2,0.4,0.4c0.1,0.2,0.3,0.4,0.2,0.5c-0.1,0.1-0.8-0.4-0.9,0.1c-0.2,0.6,0.2,0.3,0,0.8
		c-0.3,0.4,1.2-0.1,1.2-0.1s0.6,0.2,0.6,0.4c0,0.2,0.8,0.5,0.8,0.5s0.3-0.1,0.4,0c0.1,0.1,0.6,0.1,0.7,0c0.1-0.1,0.4-0.2,0.5-0.4
		c0.1-0.2,0.4-0.2,0.7-0.4c0.2-0.2,0.8-0.4,1-0.5c0.2-0.1,0.7-0.3,0.4-0.1c-0.3,0.2-0.8,0.7-1.1,0.9c-0.3,0.2-0.3,0.2-0.1,0.5
		c0.1,0.3,0.7,0.4,0.7,0.5c0.3,0.4,1,0.5,1.1,0.6c0.1,0.1,0.4,0.2,0.4,0.4c0,0.2,0.4,0.1,0.4,0.2c0,0.2,2.6-0.5,2.8-0.4
		c0.2,0.2,0.3,0.4,0.6,0.4c0.3,0,0.7-0.1,0.7-0.1s0.8,0,0.8,0c0,0.1,0.5-0.2,0.5-0.2l0.5-0.2l0.8-0.1c0,0,0.3,0,0.4,0.1
		c0.1,0.1,0.6-0.1,0.7,0c0.1,0.2,0.6,0.2,0.7,0.3c0.6,0.2,1.5-0.4,1.5-0.4s0.2,0.4,0.2,0.6c0,0.2,0.1,0.2,0.2,0.4
		c0,0.2,0.2,0.8,0.4,0.8c0.1,0,0.2,0,0.7,0.1c0.5,0.2,0.8,0.2,0.9,0.2c0.2,0.1,0.7,0.1,0.9,0.2c0.2,0.1,0.7,0,1-0.2
		c0.3-0.2,0.5-0.4,0.8-0.5c0.3-0.1,0.8-0.2,0.9-0.2c0.2,0,0.3-0.3,0.6-0.2c0.3,0.1,0.8,0.6,0.7,0.8c-0.2,0.2-0.4,0.1-0.8,0.3
		c-0.3,0.2-0.5,0-0.8,0.3c-0.2,0.3-0.4,0.2-0.2,0.5c0.2,0.3,2.9,1.3,3,1.6c0.2,0.2,0.4,0.4,0.6,0.4c0.2,0,0.3-0.3,0.6,0
		c0.3,0.2,0.6,0.3,0.8,0.6c0.2,0.3,0.6,0.2,0.7,0.5c0.1,0.3,0.7,0.3,0.7,0.6c0,0.3,0.2,0.5,0.4,0.6c0.2,0.1,0.5,0.2,0.7,0.3
		c0.2,0.1,0.6,0.1,0.6,0.4c0,0.3,0.2,0.2,0.3,0.5c0.1,0.3,0.4,0.1,0.6,0.3c0.2,0.2,0.2-0.2,0.5,0.2c0.3,0.4-0.4,0.7,0.6,0.5
		c1-0.2,1-0.2,1.3-0.2c0.3-0.1,0.1-0.2,0.6-0.2c0.6,0,0.1-1,0.3-0.9c0.2,0,0.9,0.5,0.7-0.1c-0.2-0.6-0.4-0.6-0.4-0.8
		c0-0.2,0.4-0.5,0.4-0.5s0.6,0.9,0.6,1.1c0,0.2-0.1,0.7,0,0.8c0,0.1,0.2,0,0.4,0.1c0.2,0.2,1.3,0.5,1.3,0.5s0.9,0.1,0.9,0
		c0.2-0.4,0.2-1.2,0-1.3c-0.2-0.1-0.1-0.5-0.2-0.8c-0.1-0.4,0.3-1.1,0.4-0.6c0.1,0.5,0.5,1.1,0.5,1.5c0,0.4,0.5,0.7,0.4,1
		c-0.1,0.3,0.6,0.5,0.7,0.6c0.2,0.1,0.2,0,0.6,0.3c0.3,0.3,1.1,0.3,1.2,0.5c0.1,0.2,1.2,0.4,1.2,0.4s0.8,0.4,0.7,0.7
		c0,0.2-0.1,0.7-0.2,0.8c-0.1,0.1,0.9,0,0.9,0.2c0,0.2,0,0.4-0.2,0.8c-0.2,0.4,0.3,0.4,0.4,0.6c0.1,0.2,0.9,0.6,0.6,0.8
		c-0.2,0.2-0.5,0.3-0.5,0.5c0,0.2,0.4,0.3,0.5,0.6c0.2,0.2,1.1,0.5,1.1,0.5s0.5,0.4,0.6,0.5c0,0.1,0.3,0.7,0.3,0.8
		c0,0.2,0.8,0.5,0.8,0.7c0,0.2,0.5,0.6,0.7,0.8c0.2,0.2,0.6,0.3,0.6,0.6c0.1,0.6,0.6,0.5,0.8,0.6c0.2,0.1,0.7,0.1,0.6,0.3
		c-0.1,0.2-0.5,0.2-0.7,0.4c-0.2,0.2-0.2,0.2-0.3,0.4c-0.1,0.3,0.1,0.4-0.2,0.6c-0.2,0.2,1.4,0.1,1.6,0c0.1,0,0.4-0.3,0.6-0.3
		c0.2,0,0.8-0.1,0.9,0.1c0.1,0.2,0.3,0.4,0.4,0.7c0.1,0.3,0.8,0.7,0.4,1c-0.3,0.2-0.5,0.2-0.6,0.4c-0.1,0.2-0.2,0.3-0.1,0.5
		c0.2,0.2,0.6,0.3,0.8,0.4c0.2,0.1,0.6,0.4,0.5,0.7c-0.1,0.2,0,0.2-0.4,0.4c-0.4,0.2-0.4,0.1-0.4,0.4c0,0.3,0-0.2,0,0.3
		c0,0.5,0.3,0.8,0.4,0.9c0.1,0.1,0.7-0.2,0.6,0c0,0.2,0.3,0.6,0,0.9c-0.3,0.3-0.3,0.3-0.4,0.5c-0.1,0.2,0.6,0.5,0.5,0.8
		c-0.1,0.2,0.4,0.3,0.4,0.3l0.1,0l0,0l0.8-0.3h0.5c0,0,0.1,0,0.2-0.1c0,0,0.1,0,0.1,0c0.1,0,0.2-0.1,0.3,0c0,0.2,0.3,0.3,0.3,0.5
		c0,0.2-0.3,0.7-0.7,0.9c-0.3,0.1-0.5-0.1-0.6,0c-0.1,0-0.1,0-0.2,0.1c-0.1,0.3,0.1,0.2,0,0.7c0,0.5-0.3,0.4,0,0.5
		c0.2,0.1,1.2,0,1.2,0c0,0.1,0.5-0.1,0.5,0.2c0,0.3,0.5,0.7,0.5,0.8c0,0.1,0.5,0.5,0.5,0.5c0,0,0,0,0.1,0c0,0,0,0,0,0
		c0.6-0.2,1.2-1.3,1.4-1.4c0.1-0.1,0.2-0.2,0.4-0.3c0.1,0,0.1,0,0.1,0.1c0.1,0.2,0.6,0.8,0.5,1c-0.1,0.2-0.2,0.2-0.3,0.5
		c-0.2,0.4,0.6,0.6,0.6,0.8c0,0.2-0.2,0.7-0.1,0.9c0,0.2,0.6,0.4,0.7,0.5c0.1,0.1,0.6,1.4,0.8,1.4c0.2,0,0.6-0.2,0.6,0.2
		c0,0.4-0.1,0.7,0,0.8c0.1,0.2,0.5,0.5,0.5,0.5s0.4,0.1,0.5,0.2c0,0.2,0.6,0.2,0.6,0.3v0.1l0.9-0.2c0,0,0,0,0,0l0.1,0
		c0,0,0.2-0.2,0.4-0.3c0,0,0.1,0,0.1,0c0.2,0,0.5,0,0.6,0.2c0.1,0.2,0.6,0.5,0.4,0.7c0,0-0.1,0-0.1,0c-0.3,0.1-0.9,0-1.1,0.1
		c0,0,0,0,0,0c0,0,0,0-0.1,0c-0.2,0.1-0.4,0.2-0.5,0.4c-0.1,0.2-0.6,0.3-0.7,0.4c-0.3,0.6-0.2,1-0.2,1.2c0,0.3-0.1,0.7,0.1,0.7
		c0,0,0,0,0.1,0c0,0,0,0,0,0c0.1,0,0.7-0.3,0.8-0.4c0.1,0,0.4,0,0.2,0.3c-0.2,0.4-0.3,0.4-0.5,0.6c-0.2,0.2-0.3,0-0.4,0.4
		c-0.1,0.4,0,0.6,0,0.8c0,0.2,0.5,0.6,0.7,0.8c0.2,0.3,0.8,0.6,0.9,0.5c0,0,0,0,0,0c0,0,0,0,0,0c0,0,0.1-0.1,0.2-0.1
		c0.1,0,0.2,0,0.2,0c0.1,0.2,0.7,0.5,0.7,0.5s0,0,0.1,0c0,0,0,0,0,0s0.6-0.4,0.8-0.5c0.2-0.1,0.5-0.1,0.5,0.1c0,0.2,0.6,0,0.7,0.4
		c0,0.4,0.2,0.6,0,0.8c-0.2,0.2-0.4,0.3-0.1,0.4c0.2,0.1,1,0.2,1,0.3c0,0.2,0.5,0.2,0.5,0.2c0.6,0.2,2.7-0.1,3-0.2c0,0,0,0,0,0
		c0,0,0,0,0,0c0.1,0,0.3-0.1,0.4-0.2c0.1,0,0.1,0,0.1,0.1c0,0.2-0.1,0.4-0.3,0.8c-0.2,0.4-0.3,0.4,0,0.6c0.2,0.3,0.6,0.4,0.8,0.3
		c0,0,0,0,0.1,0c0,0,0,0,0,0c0,0,0,0,0.1,0c0.1,0,0.3,0,0.3,0.1c0,0.2-0.1,0.8-0.1,1c0,0.2,0.1,0.3,0.2,0.5c0.1,0.2,0.9,0.3,0.9,0.3
		h0.7l0.7,0c0,0,0.4,0.1,0.3,0.5c-0.1,0.4,0.4,0.8,0.5,0.9c0,0.1,0.3,0.2,0.4,0.3c0.1,0,0.3,0,0.6,0c0.3,0,0.5,0,0.7,0.2
		c0.2,0.2,0.6,0.6,0.6,0.7c0,0.1,0.4,0.4,0.2,0.5c0,0,0,0,0,0c-0.1,0-0.2-0.1-0.3,0c-0.1,0-0.1,0-0.1,0.2c0,0.2,0,0.4,0,0.6h0.1
		c0,0.2,0,0.4,0,0.4s0.7,0.5,0.9,0.5c0.2,0,0.5,0.2,0.7,0.2c0.2,0,0.4,0.2,0.5,0.3c0.1,0.1,0.2,0.1,0.2,0.4c0,0.3-0.5,0.3-0.6,0.4
		c-0.1,0.2-0.3,0.1-0.2,0.4c0.1,0.3,0.5,0.5,0.2,0.6c-0.7,0.4-1.1,0.2-1.3,0.2c-0.2,0-0.7,0-0.9,0c-0.2,0-0.5,0-0.8,0.2
		c-0.3,0.2-0.8,0-1-0.2c-0.2-0.2,0-0.2-0.6-0.6c-0.7-0.4-0.8-0.6-1.1-0.4c-0.2,0.1-0.2,0-0.4,0.1c-0.2,0.1-0.2-0.1-0.4,0.1
		c-0.2,0.2-0.3,0.1-0.3,0.5c0,0.4,0.6,0.8,0.6,1c0,0.2-0.3,0.1-0.4,0.5c-0.1,0.4-0.2,0.6-0.1,0.8c0,0.2,0.4,0.2,0.6,0.5
		c0.2,0.3,0.2,0.1,0.5,0.5c0.3,0.4,0.8,0.3,0.7,0.6c-0.1,0.3,0.2,1.3,0.3,1.6c0.1,0.3,0.1,0.6,0,0.8c-0.1,0.2-0.1,0.4,0.1,0.7
		c0.2,0.3,0.6,0.6,0.5,0.8c0,0.2-0.5,0.7-0.6,0.8c0,0.1,0.2,0.3,0.3,0.8c0.1,0.5,0.5,0.2,0.3,0.7c-0.2,0.5-0.5,0.8-0.5,0.8l-0.2,1.9
		c0,0-0.2,1.1-0.2,1.4c0,0.3,0,0.4,0,0.6c0,0.2,0,0.4,0,0.6c0,0.2,0,0,0.1,0.4c0.1,0.4,0,0.3-0.1,0.6c-0.2,0.5-0.1,1-0.2,1.2
		c-0.1,0.2,0.1,0.6,0.1,0.9c0,0.3,0.1,0.6,0.1,0.8c0,0.2,0.3,0.2,0,0.5c-0.3,0.3-0.4,0.2-0.5,0.4c-0.1,0.2-0.3,0.1-0.4,0.4
		c-0.1,0.3,0.2,0.6,0,1c-0.2,0.4-0.3,0.6-0.3,0.8c0,0.2,0,0.1,0,0.6c0,0.4,0,0.1-0.2,0.7c-0.2,0.6-0.7,0.2-0.3,1
		c0.4,0.8,1.2,2.3,1.2,2.5c0,0.2,0.4,0.3,0.2,0.7c-0.2,0.4-0.5,0-0.4,0.5c0.1,0.5,0.1,0.7,0.2,1.1c0.2,0.5,0.4,0.7,0.3,1
		c-0.1,0.3,0.2-0.1,0.1,0.4c-0.1,0.5-0.3,0.5-0.3,0.9c0,0.5,0.4-0.2,0,0.5c-0.4,0.7-0.1,0.1-0.4,0.7c-0.3,0.6-0.5,0-0.3,0.8
		c0.2,0.8,0,0.7,0.2,1.2c0.2,0.5,0.4,0.4,0.6,0.7c0.2,0.3,0.6,0,0.7,0.5c0,0.5,0.3,0.6,0.3,1c0,0.4,0.6,0.5,0.3,1.3
		c-0.2,0.8,0.4,1.7,0.4,2.1c0,0.4-0.1,0.2,0.2,0.6c0.3,0.4,0.4,0.1,0.7,0.5c0.2,0.4,0.2,0.2,0.4,0.5c0.2,0.2,0.7,0.8,0.8,0.9
		c0,0.1,0.2-0.1,0.3,0.4c0.2,0.5,0.5,0.5,0.6,0.6c0.1,0.1,0.4-0.3,0.4,0.1c0,0.4,0,0.8,0.2,0.8c0.2,0,0.6-0.4,0.7-0.4
		c0.1,0,0.3-0.1,0.5-0.2c0.2-0.1,0.5-0.2,0.7-0.2c0.2,0,0.5,0.1,0.9,0c0.4-0.1,0.5-0.2,0.6,0c0.1,0.1,0.9,0,0.6,0.1
		c-0.6,0.2-0.9,0.2-1.1,0.3c-0.2,0.1-0.3,0-0.5,0.1c-0.2,0.1-0.6,0.2-0.6,0.2c-0.5,0.6-0.8,0.7-0.6,0.9c0.2,0.2,0.2,0.2,0.1,0.4
		c-0.4,0.8-0.7,0.1-0.4,0.8c0.3,0.7,0.5,0.9,0.7,1.2c0.2,0.3,0.5,0.4,0.6,0.5c0.2,0.1,0.4-0.4,0.5,0c0.1,0.4,0,0.7,0,1.1
		c0,0.4,0,0.8,0,1.1c0,0.3,0.2,0.6,0.4,0.7c0.2,0.1,1.1,1.1,1.2,1.3c0.1,0.2,0.4,0.3,0.6,0.4c0.2,0.2,0.4,0.2,0.4,0.5
		c0,0.3,0,0.4,0.2,0.6c0.5,0.6,0.8,0.4,0.9,0.7c0,0.3,0.1,0.2,0.2,0.6c0.1,0.4,0.1,0,0.1,0.6c0,0.6,0,0.2,0.2,0.7
		c0.2,0.5,0.2-0.2,0.2,0.5c0,0.7-0.1,0.5,0.2,0.8c0.3,0.3,0.6,0.3,0.7,0.4c0.1,0.1,0.4-0.1,0.6,0.1c0.2,0.2,0.8,0,0.8,0
		s-0.4-0.4,0.4,0c0.8,0.4,2.3,0.3,2.5,0.4c0.2,0.1,0.6,0.2,0.6,0.4c0.1,0.2,0.5,0.2,0.5,0.5c0,0.3,0.3,0.1,0.4,0.4
		c0.1,0.3,0.2,0.2,0.5,0.2c0.2,0,0.3-0.2,0.5-0.1c0.2,0.2,0.3-0.1,0.5,0.1c0.2,0.2,0.2,0.2,0.4,0.2c0.2,0.1,0.3,0,0.4,0.2
		c0.1,0.3,0.3,0.2,0.4,0.5c0.1,0.3,0.2,0.2,0.4,0.4c0.2,0.2,0.5,0.1,0.6,0.3c0.1,0.2,0.4,0.3,0.6,0.6c0.2,0.3,1,1.5,1.2,1.8
		c0.1,0.3,0.3,1,0.3,1.2l-0.1,0c0,0,0,0,0,0.1c0,0.2-0.1,0.1,0,0.4c0.1,0.3-0.1-0.1,0.1,0.3c0.2,0.4,0.4,0.5,0.5,0.9
		c0.1,0.4,0.3,0.3,0.4,0.7c0.1,0.4,0.4,0.8,0.4,0.8s0.2,0.2,0.4,0.5c0.2,0.3,0.6,0.7,0.7,1c0.1,0.4,0.9,1.3,1.1,1.7
		c0.2,0.4,0.7,0.4,0.7,0.9c0,0.5,0.1,0.5,0.1,0.8c0,0.3,0.1,0,0.2,0.6c0.1,0.6,0.4,0.7,0.4,1c0,0.4,0.3,0.5,0.2,0.8
		c-0.1,0.3,0,0.3,0,0.5c0,0.2,0.1,0.2,0.3,0.4c0.2,0.2,0.2,0.2,0.4,0.3c0.2,0.2,0.9,0.6,0.9,0.6l0.7,0.6l0.8,0.4l1,0.8
		c0,0,0.4,0.5,0.5,0.5c0.1,0,0.5,0.3,0.5,0.4c0,0.1,0.5,0.7,0.5,0.7s0.2,0.2,0.3,0.4c0,0.2,0.4,0.6,0.4,1c0,0.3-0.1,0.5-0.1,0.5
		c0.1,0.6,0.1,0.7,0,0.9c-0.1,0.2-0.3-0.2-0.5-0.1c-0.2,0.2-0.5,0.4-0.8,0.1c-0.2-0.3,0-0.4-0.4-0.3c-0.4,0.1-0.4,0.1-0.6,0.1
		c-0.2,0-0.6,0-0.7,0.1c-0.1,0.1-0.3,0-0.6,0.2c-0.2,0.2,0,0.4,0.1,0.6c0.2,0.2,0.7-0.1,0.8,0.2c0.1,0.3,0.6,0.7,0.8,0.9
		c0.2,0.2,0.4,0.4,0.6,0.9c0.2,0.5,0.2,0.5,0.5,0.5c0.3,0,0.7-0.2,0.9,0.1c0.2,0.2,0.4,0.4,0.7,0.7c0.3,0.3,0.9,0.2,1,0.4
		c0.1,0.2,0.3,0,0.5,0.2c0.2,0.1,0.4,0.1,0.6,0.2c0.2,0.1,0.1-0.2,0.4,0c0.3,0.2,0.4,0,0.8,0.5c0.4,0.5,1.3,0.8,1.5,1
		c0.2,0.2,0.2,0.4,0.5,0.6c0.3,0.2,0.5,0.4,0.6,0.6c0,0.2,0.3,0.4,0.2,0.9c-0.1,0.4,0.2,0.4-0.2,0.8c-0.3,0.4-0.1,0.2-0.3,0.8
		c-0.2,0.6,0,0.2,0,0.8c0,0.5-0.1,0.2,0.3,0.8c0.4,0.6,0.2,0.6,0.7,0.9c0.5,0.2,0.5,0.2,1.1,0.4c0.6,0.3,0.8,0.5,1.2,0.9
		c0.3,0.4,1.4,1,1.5,1.2c0.1,0.2,0.2,0.6,0.4,0.7c0.2,0.1,0.8,0.2,0.9,0.4c0.1,0.2,0.4,0.4,0.6,0.6c0.1,0.2,0.2,0,0.5,0.4
		c0.3,0.4,0.4-0.1,0.4,0.6c0,0.7,0.1,1,0.2,1c0.6,0.2,1,0.1,1.1,0.1c0.2,0,1.1-0.8,1.1-0.8l0-0.6c0,0-0.2-0.3-0.3-0.5
		c-0.1-0.2-0.3-0.5-0.5-0.7c-0.2-0.2-0.2-0.3-0.3-0.6c0-0.3,0.1-0.2-0.1-0.6c-0.2-0.4-0.2-0.2-0.3-0.6c-0.2-0.5-0.6-0.3-0.8-0.3
		c-0.2,0-0.9,0-1-0.2c-0.1-0.2-0.6-0.6-0.8-0.6c-0.1,0-0.3,0.1-0.5-0.3c-0.2-0.4-0.4-0.6-0.3-0.9c0.1-0.2,0-0.3,0.2-0.5
		c0.5-0.4,0.4-0.8,0.3-1c0-0.2-0.4-0.6-0.6-0.6c-0.2,0-0.6-0.7-0.6-0.7s0.3-0.5-0.1-0.6c-0.4-0.1-0.2-0.3-0.7-0.5
		c-0.5-0.2-1-0.1-0.3-0.5c0.7-0.4,0.9-0.3,0.9-0.5c0-0.2-1.2-1.4-1.2-1.4s0.6,0.4,0.4,0c-0.2-0.4-0.2-0.5-0.6-0.9
		c-0.4-0.4-0.3-0.8-0.7-1c-0.4-0.1-0.5-0.4-0.9-0.9c-0.4-0.5-0.4-0.5-0.5-0.7c-0.1-0.2-0.3-0.3-0.6-0.4c-0.3-0.2-0.6-1-0.9-1.2
		c-0.3-0.2-0.5-0.2-0.7-0.7c-0.2-0.4-0.2-1.4-0.6-1.5c-0.4-0.1-0.9-0.9-0.9-1.3c0-0.4-0.4-0.9-0.5-1c-0.2-0.1-1.1-0.2-0.5-0.9
		c0.6-0.7,0.7-1,0.4-1.3c-0.4-0.3-0.9-1.2-1.1-1.1c-0.2,0-0.3-0.1-0.7,0.1c-0.4,0.2-0.5,0-0.9,0c-0.4-0.1-0.6-0.4-0.9-0.6
		c-0.3-0.2-0.6-0.4-0.9-0.9c-0.2-0.5-0.3-0.7-0.4-1.1c-0.1-0.4-0.3-1.5-0.3-1.5s0.1-0.1-0.1-0.8c-0.2-0.7,0,0.4-0.2-1.1
		c-0.2-1.5-1.7-2.2-0.1-1.7c1.6,0.6,2.3,0.4,2.4,0.5c0.1,0.1,0.2,0.1,0.4,0c0.2-0.1,0.4-0.4,0.8-0.1c0.3,0.3,0.2,0,0.5,0.5
		c0.2,0.4,0.6,0.5,0.7,0.7c0,0.2,0.2,0.3,0.4,0.3c0.2,0,0.4-0.6,0.5,0c0,0.6,0.5,1.4,0.5,1.4l-0.3,1c0,0,0.7,0.7,0.8,0.9
		c0.1,0.2,0.1,0.5,0.3,0.9c0.2,0.4,0.8,0.7,0.7,1c-0.1,0.3,0.1,0.2,0.3,0.6c0.2,0.4,0.5,0.8,0.6,1c0.1,0.2,0.4,0.4,0.4,0.7
		c0,0.4,0.1,0.8,0.3,1c0.2,0.2,0.2,0.3,0.4,0.5c0.2,0.2,0.7,0.3,0.7,0.5c0,0.2,0.2,0.3,0.3,0.6c0.1,0.3,0.7,1.1,0.7,1.1
		s0.5,0.4,0.6,0.4c0.1,0.1,0.2-0.1,0.8,0.3c0.6,0.4,0,0.3,0.3,0.4c0.3,0.1,1,0.4,1,0.4l0.4,0.2c0,0,0.3,0.4,0.3,0.5
		c0,0.1,0.1,1.4,0.2,1.5c0,0.1,0.4,0.2,0.5,0.3c0.1,0.1,0.3-0.2,0.4,0c0.2,0.2,0.6,0.1,0.6,0.2c0,0.1,0.3,0.1,0.5,0.6
		c0.2,0.5,0.6,0.7,0.6,0.7c0.4,0.5,1,0.8,1,0.8s0.3,0,0.4,0.2c0.1,0.2,0.4,0.2,0.2,0.6c-0.2,0.5-0.2,0.6-0.4,0.9
		c-0.2,0.3-0.2,0.2-0.2,0.5c0,0.3,0.4,0.8,0.4,0.8s0.6,0.2,0.6,0.4c0.1,0.1,0.4,0.2,0.6,0.3c0.1,0.1,0.8,0.4,0.8,0.4s0.3,0,0.4,0.2
		c0.1,0.2,0.7,0.9,0.7,0.9l0.5,0.1c0,0,0.4-0.2,0.6,0c0.2,0.2,0.4,0.3,0.4,0.5c0,0.2,0.1,0.3,0,0.6c-0.1,0.3-0.1,0.3,0,0.5
		c0,0.2,0.4,0.4,0.5,0.7c0.1,0.3,0.8,0.6,0.9,0.8c0.1,0.2,0.4,0.2,0.5,0.3c0.1,0.1,0.4,0.1,0.6,0.3c0.2,0.2,0.6,0.1,0.8,0.5
		c0.1,0.4,0.4,0.3,0.5,0.7c0.1,0.4-0.4,0.2,0.4,0.7c0.9,0.4,1.5,1,1.4,1.2c-0.1,0.2,0.6,1,0.6,1.1c0,0.1,1.6,1.1,1.6,1.3
		c0,0.2,0.3,0.8,0.4,0.9c0.1,0.1,0.5,0.1,0.5,0.7c0,0.6,0.3,1,0.3,1.2c0,0.3,0.2,0.2-0.1,0.6c-0.3,0.3-0.2,0.1,0,0.4
		c0.2,0.3,0.6,0.6,0.6,0.8c0,0.2,0.2,0.4,0.2,0.6c0,0.1,0.2,0.4,0.1,0.6c-0.2,0.2-0.2,0-0.2,0.4c0,0.4,0,0.9,0,1
		c0,0.2,0.3,0.1,0.1,0.4c-0.4,0.6-0.4,0.7-0.7,0.9c-0.2,0.2-0.4,0-0.2,0.4c0.2,0.4,0.4,0.8,0.5,1c0.1,0.2,0.7,0.8,0.8,1.2
		c0.1,0.4,0.1,1.2,0.3,1.2c0.2,0.1,0.7,0.6,0.9,0.7c0.2,0.1,0.6,0.7,0.7,0.7c0.1,0,0.5-0.2,0.7-0.1c0.2,0.1,0.9,0.1,1,0.3
		c0.1,0.2,0.5,0.6,0.8,0.7c0.3,0.1,0.9,0.6,0.9,0.8c0,0.2,0.3,0.1,0.4,0.4c0.1,0.3,0.2,0.3,0.4,0.6c0.2,0.2,0.7,0.4,0.9,0.5
		c0.2,0.1,0.2,0,0.6,0.1c0.4,0.2,0.4,0.2,1,0.5c0.6,0.4,1.8,0,2,0.1c0.1,0.1,1,0.5,1,0.5s0.7-0.1,0.8,0.1c0.1,0.2,0.9,0.6,0.9,0.8
		c0,0.2,0.7,0.5,0.7,0.6c0,0.2,1,0.7,1,0.7s0.3,0.1,0.4,0.2c0.2,0.1-0.1,0.2,0.8,0.4c0.9,0.2,1.1,0.6,1.3,0.6c0.2,0,0.8,0.5,0.8,0.5
		h0.9l0.8,0.4c0,0,0,0,0.4,0.2c0.3,0.2,0.9,0,1.1,0c0.2,0.1,0.9,0.4,0.9,0.4s0.5,0,0.6,0.2c0,0.2,0.3,0.3,0.6,0.4
		c0.3,0.1,0.5,0.1,0.8,0.3c0.2,0.2,0.4,0,0.9,0.3c0.5,0.3,3.3,1.3,3.3,1.3s1,0.3,1.2,0.2c0.2-0.2,1.1,0.2,1.2,0.2
		c0.2,0,0.8,0.2,1,0.2c0.1,0,0.9-0.1,1.1-0.2c0.2-0.1,0.1-0.1,0.4-0.2c0.3-0.1,0.4,0,1.4-0.5c1-0.5,1.3-0.6,1.4-0.6
		c0.1,0,0.4-0.1,0.6-0.3c0.2-0.2-0.1-0.2,0.4-0.3c0.5,0,0.4,0,0.8,0.1c0.4,0.1,1.4,0.5,1.4,0.5c0.6,0.3,1.2,0.4,1.4,0.6
		c0.2,0.1,1.4,1.2,1.6,1.2c0.2,0,0.7,0.4,0.8,0.5c0.1,0.1,0.6,0.4,0.7,0.5c0.1,0.2,0,0.2,0.5,0.4c0.5,0.2,0.4-0.5,0.8,0.3
		c0.4,0.8,0.8,1.2,0.8,1.3c0,0.2,0.4,0.8,0.4,1c0,0.1,0.1,0.2,0.2,0.4c0.2,0.2,0.4,0.4,0.6,0.4c0.4,0,3.5,1.3,3.5,1.3
		s0.4,0.4,0.5,0.2c0.1-0.1,0.8-0.2,1.1-0.2c0.3,0.1,0.8,0.2,1.1,0.4c0,0,0,0,0,0c0.3,0.2,0.3,0,0.8,0.5c0.5,0.4,1.3,0.6,1.5,0.7
		c0.2,0.2,0.6-0.1,0.8,0.1c0.3,0.2,1.3,0.4,1.3,0.4s1.1,0.1,1.2,0.1c0.1,0,1,0.2,1.5,0.2c0.5,0,1.9,0,2,0.1h0
		c0.2,0.1,0.6-0.1,0.6,0.3c0,0.4-0.1,0.7-0.2,1c0,0.1,0.1,0.3,0.2,0.4c0.1,0.1,0.3,0.2,0.4,0.3c0.2,0.2,1.3,0.6,1.3,0.9
		c0,0.3,0.7,0.8,0.6,0.9c-0.1,0.1,0.2,0.1,0.4,0.5c0.1,0.4,0.6,0.8,0.7,0.9c0.1,0.1,0.1,0.1,0.4,0.4c0.4,0.3,1.1,0.4,1.1,0.6
		c0,0.1,0.4,0.4,0.4,0.5c0,0.1,0.4,0.4,0.4,0.6c0,0.2,0.2,0.4,0.2,0.5l0,0c0,0.1,0,0.1-0.1,0.1c-0.2,0.2-0.2,1.3-0.2,1.5
		c0,0.1,0,0.6,0,0.9c0,0.3,0,0.7,0.2,0.9c0.2,0.2,0.4,0.7,0.6,0.7c0.2,0,0.5,0.1,0.5,0.1l0.4,0.1c0,0,0.9,0.4,0.9,0.6
		c0,0.1,0.7,0.7,0.8,0.4l0.1-0.3c0,0,0.1-0.6,0.1-0.8c0-0.1-0.3-0.3-0.5-0.7c-0.2-0.4,0.7,0.3,0.7,0.4c0.1,0.5,0.2,0.7,0.2,0.8
		c0.1,0.1,0.2,0.3,0.3,0.4c0.1,0.1,0.4,0,0.5,0.1c0,0.2,0.2,0.5,0.4,0.4c0.2-0.1,0.4-0.2,0.5-0.1c0.2,0.1,0.6,0.1,0.7,0.3
		c0.2,0.2,0.6,0.1,0.6,0.4c0,0.3,0.5,0.6,0.5,0.7c0,0.1,0.2,0,0.2,0.3c0,0.4-0.1,0.3-0.2,0.6c-0.1,0.3,0.1,0.2,0.2,0.4
		c0.1,0.2,0.2,0.2,0.2,0.4c0,0.2,0.4,0.2,0.5,0.3c0.4,0.2,0,0.7,0.3,0.6c0.3-0.1,0.8,0,0.8-0.1c0.1-0.2,0-0.5,0.2-0.4
		c0.2,0.1-0.1,0,0.5,0.2c0.6,0.2,0.9,0.6,0.9,0.6c1.1,0.1,1.8,0.2,2.1,0.2c0.3,0.1,0.8,0.1,0.9,0.3c0.1,0.2,0.6,0.4,0.6,0.6
		c0,0.2,0.4,0.1,0.4,0.1s0.2,0.5,0.2,0.7c-0.1,0.2,0.4,0.2,0.5,0.2c0.1,0.1,0.4,0,0.5-0.1C344.9,498.6,345.2,498.5,345.3,498.7z"/>
</g>
<g transform="matrix(1,0,0,1,-8.58111,-38.3813)">
	<path class="st0" d="M380.1,632.8C380.3,631.6,380,632.7,380.1,632.8z"/>
</g>
<g transform="matrix(1,0,0,1,-8.58111,-38.3813)">
	<path class="st0" d="M509.5,551.7c-0.1-0.4-0.1-0.8-0.1-1.1c0.1,0.2,0.1,0.2,0-0.1c0-0.1-0.1-0.2-0.2-0.4c0,0,0,0,0,0
		c-0.1-0.2-0.2-0.5-0.4-0.8c-1.4-2.9-1.2-3.3-1.8-3.3c-0.6,0.1-1.3,0.2-1.8,0.1c-0.6-0.1-0.4-0.4-1-0.4h-1.7c0,0-0.2,0.3-0.8-0.2
		c-0.6-0.6-1-0.8-1.1-1.4c-0.2-0.6-0.3-1.5-0.9-1.8c-0.6-0.3-1.2-0.5-1.4-0.6c-0.2-0.1-0.5-0.6-1-0.8c-0.6-0.2-1.2-1.1-1.4-1.2
		c-0.2-0.1-0.8-0.6-1.2-0.8c-0.4-0.2-1.3-0.7-1.5-0.9c-0.2-0.2-1.5,0.2-1.7-0.2c-0.2-0.3-0.4-0.3-0.9-0.5c-0.5-0.2-0.9-0.5-1.7-0.2
		c-0.7,0.2-0.8-0.1-1.5,0.4c-0.7,0.5-0.7,0.1-1.4,0.3c-0.7,0.2-0.6-0.2-1.3-0.2c-0.7-0.1-1-1-1.8-0.8c-0.8,0.2-0.9-0.1-1.2-0.2
		c-0.3-0.1-0.2-0.6-1-0.9c-0.9-0.2-0.6-0.8-1.4-0.2c-0.7,0.6,0.2,0-0.7,0.6c-0.9,0.6-1.8,0.6-1.8,0.6c-0.8-0.1-0.2-0.6-0.8-0.1
		c-0.6,0.6,0.2,0.8-0.6,0.9c-0.8,0.1-1-0.2-0.5-1c0.5-0.8,0.5-0.8,0.5-1.1c-0.2-1.4-0.3-1.2-0.9-1.8c-0.6-0.6-0.8-0.3-1.2-0.5
		c-0.4-0.2-1.1-0.2-1.4-0.5c-0.2-0.3-0.6-0.2-0.8-0.5c-0.2-0.3-0.9-0.5-1.3-0.3c-0.4,0.2-1-0.5-1.4-0.4c-0.3,0.1-0.6-0.7-1-0.6
		c-0.4,0.2-0.4-0.7-0.9-0.6c-0.5,0.2-0.3-0.7-0.8-0.6c-0.5,0.1-0.6-0.2-0.9,0.2c-0.4,0.4-0.2-0.2-0.6-0.1c-0.4,0.2-0.9-0.4-1.3,0.1
		c-0.4,0.5-0.4-0.2-0.8,0.6c-0.4,0.8-0.4,0.9-1,1.6c-0.7,1-0.7,0.6-1.5,1.3c-0.8,0.7-0.5,0.1-0.8,0.7c-0.3,0.6-0.2,0.3-0.7,0.7
		c-0.5,0.4-0.4-0.2-0.5,0.4l-0.1,0.6c0,0,0.2-1.6-0.6-1.4c-0.7,0.2-1.6,0.4-1.6,0.4s-0.8-0.8-1.1-0.8c-0.3,0-0.3-0.1-0.8-0.6
		c-0.8-0.7,1.3,0.2,1.7,0.1c0.4-0.1-0.1,0,1-0.1c1.1-0.1,1.4,0,1.9-0.1c0.6-0.1,1.8-0.8,1.8-0.8s0.2-0.2,0.3-0.7
		c0.1-0.5,0.1-0.6,0.2-1c0.2-0.5,0.2-1,0.2-1.4c0.1-0.4,0.5-1-0.2-1c-0.7,0-1.7,0.2-2.1,0.1c-0.4-0.1-0.6-0.3-1.1-0.1
		c-0.6,0.2-0.6,0-1.7-0.2c-1.1-0.2-0.5-1-1.4-0.2c-1,0.8-1.4,0.9-1.4,1.2c0,0.3,0.3-0.1,0.4,0.9c0.1,1,0.1,1.8-0.2,1.7
		c-0.3-0.1-0.7-0.6-0.6-0.7c0.1-0.2-0.4-0.5-0.6-0.8c-0.5-1.3-0.9-1.2-0.6-1.7c0.3-0.5,0.2-0.4,0.6-1c0.4-0.6-0.4-0.3,0.7-0.8
		c1.1-0.5,1.1-0.4,1.7-0.8c0.6-0.4,0.8-0.4,1-0.9c0.2-0.5-0.2-0.6,0.2-1.2c0.4-0.6,0.6,1.1,0.3-0.9c0,0-0.2-1-0.1-1.2
		c0.1-0.2-0.2-0.7-0.4-0.8c-0.2-0.1-1-0.7-1.2-0.7c-0.2,0-0.7-0.6-1-0.6c-0.3,0.1-0.2-0.6-0.3-1c-0.1-0.3,0.1-0.8,0.1-1.2
		c0-0.4,0.2-0.8-0.3-1.4c-0.6-0.6-0.2-1-0.6-1.5c-0.3-0.6,0.3-0.3-0.3-1.4c-0.6-1-1.4-0.9-1.4-0.9s-0.1-0.2-0.3-0.5
		c-0.3-0.4-0.7-1-0.9-1.1c-0.4-0.2-1.7-1.4-2.1-1.6c-0.5-0.2-0.9-0.4-1.4-0.6c-0.6-0.2-0.6-0.9-1.3-0.7c-0.7,0.2-0.2-0.6-0.9-0.6
		c-0.6,0-0.3-0.5-0.8-0.4c-0.5,0.1-0.3-0.6-0.8-0.5c-0.1,0-0.1,0-0.2,0c-0.5,0-1-0.3-1.4-0.1c-0.4,0.2-0.3,0-1,0.2
		c-0.6,0.2-1-0.6-1.4-0.3c-0.5,0.3,0.2-0.2-0.9-0.2c-1,0-1.2-0.2-1.7,0c-0.6,0.2-0.4,0.6-0.7,0.7c-0.3,0.1-0.1-0.8-1-0.3
		c-1,0.5-0.8,0.2-1.3,0.4c-0.3,0.1-0.4,0-0.5-0.1c-0.1-0.1-0.2-0.3-0.3-0.4c-0.9-0.6-1-0.9-1.4-1.4c-0.4-0.6-2.2-1.7-2.2-1.6
		c-0.1,0.1-0.1-0.3-0.6-0.2c-0.6,0.1-1.3,0.4-1.4-0.1c-0.2-1-0.1-0.6-0.2-1.3c-0.1-0.6-0.5-0.8-0.7-1.2c-0.2-0.4-0.1-0.8-0.7-0.9
		c-0.6-0.2-0.8-0.2-1-0.6c-0.2-0.4-0.6-0.6-1.1-0.7c-0.3-0.1-0.6-0.3-0.9-0.5c-0.1-0.1-0.2-0.1-0.3-0.1c-0.3,0-0.2-0.5-0.6-0.7
		c-0.5-0.2-0.6-0.8-1.4-0.8c-0.7,0-1.2-0.3-1.6,0c-1.4,0.8-1.8,0.9-1.6,0.4c0.2-0.5,0.2-0.5,0.6-1c0.5-0.6,0.9-1.3,0.9-1.3
		c-0.9-0.9-0.7-1.3-1.2-1.3c-0.5,0-0.5-0.3-1.1-0.1c-0.6,0.2-0.7,0.1-0.9-0.3c-0.2-0.4,0.2-0.8-0.1-0.9c-0.2-0.1-0.7,0.4-1.2,0.7
		c-0.5,0.3-1,0.2-1.1,0c-0.1-0.2-0.1-1-0.1-1s-1.2,0.7-1.4,0.2c-0.2-0.6-0.2-0.8,0.1-1.1c0.2-0.3-1.4,0.6,0.2-0.3
		c0.7-0.4,1.1-0.7,1.4-0.8c-0.8-0.1-1.9-0.2-2,0c-0.2,0.3-1.3,0.4-1.7,0.3c-0.4-0.1-0.2-0.3-1.2-0.1c-1,0.2-0.7-0.7-1.9,0.5
		l-1.2,1.2c0,0-1.4-0.3-1.9-0.2c-0.5,0.2-0.7-0.2-1.6-0.4c-0.9-0.2-0.3-0.5-1-0.7c-0.7-0.2-0.3-1-1-0.6c-0.7,0.3-0.6,0.3-1.4,0.3
		c-0.9,0,0.6-0.6-1.4,0c-2,0.6-1.5,1.3-2.5,0.6c-1-0.6-0.4-0.6-1-0.6c-0.2,0-0.3,0-0.3,0.1c0,0,0,0,0-0.1c-0.2-0.6-0.9-1.3-0.9-1.3
		s0.2-1-0.5-1c-0.7,0-1.8-0.3-2.3-0.3c-0.6,0-0.8-0.4-1.2-0.5c-0.4-0.1-0.1-0.5-0.4-1c-0.3-0.5,0.3-1.3-0.5-1.4
		c-0.8-0.1-0.9-0.9-1.4-0.1c-0.6,0.8-1,1.4-1.1,1.9c-0.1,0.5,0.9,0.2-0.1,0.9c-1,0.7-1.5,0.5-2.4,0.9c-0.9,0.4-1,0.5-1.2,1
		c-0.2,0.5-0.2,0.5-0.1,1.1c0.1,0.6,1.4,0.7,1.4,1.7c0,1,0.3,0.3,0.2,1.7c-0.1,1.4,0.8,1.1-0.1,1.8c-0.9,0.7-1.1,0.2-1.6,0.1
		c-0.5-0.2-1.4-1.5-1.4-2.1c-0.1-0.6-1-0.2,0.2-1.7c1.2-1.5,0.4-3.9,0.3-4.1c-0.1-0.2-0.6-0.1-0.6-0.7c0,0,0,0,0,0
		c0.1-0.6-0.1-0.8,0.6-0.8c0.6,0,1.4,0.2,1.7-0.2c0.3-0.3,1-0.9,0.8-1.2c-0.2-0.3,0.2,0.3,0.2,0.3s0.3,0.2,0.6,0.1
		c0.2-0.1,0.1-0.2,0-0.6c-0.1-0.4,0.1-1-0.6-1c-0.7-0.1-0.7-0.1-1.6,0c-0.9,0.1-1,0.1-1.7,0.5c-0.7,0.4-1.2,0.9-1.4,1.3
		c-0.2,0.4-0.1,0.6-1,1c-0.9,0.5-0.6,0.3-1.4,0.9c-0.7,0.6,0.1,0.5-0.7,0.6c-0.8,0.1,0.2,0.2-0.8,0.1c-1-0.2-0.9-0.7-1.6-0.4
		c-0.7,0.3,0.7-1.3-0.7,0.3c-1.4,1.6-0.3,0.9-1.6,1c-1.3,0.1-1.7,0-2.2,0.3c-0.5,0.3-0.6,0.9-1.1,1.3c-0.5,0.5-0.1-0.2-0.2,1
		c-0.2,1.2,0.1,2.4-0.4,2.9c-0.5,0.5-0.4,0.5-0.9,0.5c-0.5,0-0.6-0.6-1.1,0.3c-0.6,0.9-0.9,1.8-1.4,2.1c-0.5,0.3-0.4,0.1-0.8,0.7
		c-0.4,0.6-0.2,0.6-0.4,1c-0.1,0.1-0.1,0.2-0.2,0.1c-0.2,0.9-0.9,1.6-2,1.5c0.3,0.8-0.4,1.3-1,1.7c0.4,0.3,0.7,0.6,0.7,0.6
		s-0.1,0.1-0.1,0.4c0,0.3,0.1,0.1,0.2,0.6c0.2,0.4,0.6,0.5,0.6,0.8c0,0.3,0.4,0.3,0.2,0.8c-0.2,0.5-0.1,0.8-0.1,1
		c0,0.3,0.2,1.1,0.2,1.4c0,0.3-0.4,0.6-0.4,1.1c0,0.5,0.2,0.2,0.4,0.7c0.2,0.5,0.5,0.8,0.4,1.1c0,0.4,0,0.7,0,1.2
		c-0.1,0.4,0,0.8-0.1,1.2c-0.1,0.4,0.1,1.4,0.3,1.6c0.2,0.2,0.4-0.2,0.1,0.4c-0.4,0.6-0.6,0.7-0.8,1c-0.2,0.3-0.2,0.4-0.4,0.8
		c-0.2,0.4-0.2,0.4-0.4,0.7c-0.2,0.4-0.1,0.4-0.5,0.6c-0.4,0.2-0.1-0.2-0.4,0.2c-0.3,0.4,0.3,0-0.3,0.4c-0.6,0.4-0.9,0.1-1.2,0.3
		c-0.3,0.2-0.2,0-0.5,0.2c-0.3,0.1-1,0.4-1,0.8c0,0.5-0.1,0.9-0.2,1.3c-0.1,0.4,0,0.2-0.2,0.3c-0.2,0-0.1,0.4-0.2,0.6
		c-0.1,0.1-0.2,0.3-0.3,0.6c0,0.1,0,0.1,0,0.2c0,0.3,0.3,0.6,0.2,0.8c0,0.2-0.4,0.2-0.6,0.2c-0.3,0-0.5-0.2-0.8,0
		c-0.3,0.1-1,0.4-1.1,0.6c-0.1,0.1-0.1,0.2-0.3,0.3c-0.2,0.1-0.8,0-1,0.1c-0.2,0.1-0.1-0.2-0.4,0.1c-0.3,0.3-0.4,0.1-0.4,0.5
		c0,0.4-0.2,0.6,0,0.9c0.3,0.3,0.2,0.4,0.3,0.6c0.1,0.2,0.2,0,0.2,0.4c0,0.4,0.2-0.1-0.4,0.4c-0.6,0.5-0.9,0.6-1,0.9
		c-0.1,0.3,0,0.2,0,0.6c0,0.4,0.1,0.4,0,0.7c0,0.4,0,1.4-0.2,1.6c-0.2,0.2-0.5,0.6-0.8,1c-0.2,0.4-0.2,0.2-0.2,0.6s0.4,0.4,0.1,0.8
		c-0.2,0.4-0.5,0-0.2,0.4c0.2,0.4,1,0.5,0.8,0.7c-0.2,0.2-0.3,0.2-0.4,0.4c-0.1,0.2-0.1,0.3,0.2,0.6c0.4,0.3,0.9,0.2,0.9,0.7
		c0,0.4,0.4,0.7,0.4,0.7s0.6,0.3,0.7,0c0.2-0.3,0.4-0.6,0.5-0.9c0.2-0.4,0.5-1.3,0.6-1.1c0.2,0.5-0.2,1.9-0.2,1.9s0.4,0,0.1,0.6
		c-0.3,0.6-1.3,1.3-1.3,1.3s0,0,0,0c-0.1,0.1-0.5,0.3-0.6,0.4c-0.2,0.2-0.6,0.2-0.9,0.5c-0.4,0.3,0-0.2-0.6,0.4
		c-0.6,0.6-0.9,0.7-1.1,1c-0.2,0.3-0.4,1.2-0.4,1.4c-0.1,0.3-0.3,0.6-0.4,1c0,0.4,0-0.1,0,0.6c0,0.8,0,0.6,0.3,1.1
		c0.2,0.5,0.1,0.5,0.5,0.8c0.4,0.3,0.5-0.1,0.7,0.5c0.2,0.6,0.3,0.4,0.2,0.9c-0.1,0.4,0.2,0.3-0.2,0.6c-0.4,0.3-0.4-0.1-0.4,0.3
		c-0.1,0.4,0.1,0.2,0,0.6c-0.1,0.4,0.4,0.3,0.8,0.8c0.5,0.5,1.3,0.7,1.4,0.7c0.1,0,0.2,0,0.4,0c0.2,0.1,0.8,0.1,0.8,0.3
		c0,0.2,0.4,0.6,0.6,0.8c0.2,0.2,0.8,0.5,0.8,0.8c0,0.3,0,0.5,0.1,0.8c0.1,0.2,0.5,0.8,0.5,0.9c0,0.1,0.6,0.4,0.6,0.8
		c0,0.4,0.7,1.5,0.8,1.7c0.1,0.2,0,0.2,0.2,0.5c0.2,0.3,0.4,0.5,0.5,0.8c0.1,0.3,0.2,0.4,0.4,0.6c0.2,0.2,0.3,0.3,0.4,0.4
		c0.1,0.2,0.4,0.2,0.6,0.4c0.2,0.3,0.5,0.2,0.6,0.7c0,0.4,0.3,0.8,0.4,1.3c0.1,0.5,0.2,0.6,0.5,1.6c0.3,0.9,0.7,1.7,0.8,2.1
		c0.2,0.4,0.2,0.2,0.3,0.6c0.2,0.4,0.7,1.3,1,1.7c0.3,0.4,0.7,0.3,0.8,0.8c0.1,0.5,0.2,0.9,0.4,1.3c0.2,0.4,0.6,0.8,0.7,1
		c0.1,0.2,0.3,0.1,0.6,0.8c0.3,0.7,0,0.7,0.5,1.3c0.6,0.6,1,0.6,1,1.1c0,0.5,0.3,0.9,0.4,1.2c0.1,0.3,0.4,0.2,0.2,0.8
		c-0.1,0.6-0.3,0.7-0.4,1.1c0,0.4-0.1,0.3,0,0.7c0.1,0.4,0.2,0.4,0.6,0.7l1.4,1.1c0,0-0.2,0.6,0.2,1.1c0.4,0.5,0.6,0,0.7,0.5
		c0.2,0.5,1.2,0.3,1.3,0.6c0.1,0.2,0.6,0.6,0.6,0.9c0,0.3,0.4,0.6,0.6,0.7c1,0.6,1.4,0.3,1.8,0.7c0.3,0.4,2.2,1.8,2.6,1.9
		c0.5,0.1,0.7,0.5,1.2,0.6c0.5,0.2,0.9-0.3,1.3,0.1c0.4,0.4,1,0.6,1.2,0.9c0.2,0.2,0.6,0.2,0.9,0.3c0.3,0.2,0.7,0.1,1,0.2
		c0.2,0.2,0.9,0.2,1.4,1c0.6,0.8,1,1.4,1,1.6c0.5,1.2,1.2,1.5,1.4,1.7c1,0.8,0-0.6,1,0.8c0.2,0.2,0.3,0.4,0.4,0.5
		c0.7,0.8,0.8,0.6,0.6,0.8c-0.2,0.2-0.3,0.9-0.2,1.4c0.2,0.6,0.2,1.4,0.3,1.8c0.1,0.4,0.2,0.8,0.2,1.1c0.1,0.3,0.1,0.4,0,1
		c-0.1,0.6-0.2,0.7-0.2,1.3c0,0.5-0.1,0.5,0.2,1c0.2,0.6,0.2-0.2,0.5,1c0.2,1.2,0.3,1.4,0.1,1.9c-0.2,0.6-0.5,0.9-0.6,1.3
		c-0.3,1.5-0.4,1-0.4,2c0,1,0.6-0.8-0.1,1.4c-0.6,2.1-0.6,1.5-0.6,2.1c0.2,1.8,0.1,1.9,0.2,2.2c0.1,1.7-0.2,5.8-0.6,6.5
		c-0.4,0.7-0.7,0.9-0.7,1.6c0,0.7,0.6,0.9,0.2,1.7c-0.3,0.8-0.1,0.6-0.3,1.6c-0.2,0.9,0-0.2-0.2,0.9c-0.2,1.1-0.1,1.1-0.3,1.9
		c-0.2,0.8,0.2-0.6-0.2,0.8c-0.4,1.4-0.2,0.4-0.5,1.8c-0.2,1.4,0.3,0.5-0.2,1.4c-0.1,0.2-0.2,0.3-0.2,0.2c0,0,0,0.1,0,0.1
		c-0.3,1.8-0.2,1.8,0,2.6c0.2,0.8,0.7,0.4,0.4,1.4c-0.3,1-0.5,1.2-0.6,1.6l-0.5,1.2c0.1,2.2-0.5,3.1-0.3,3.8c0.2,0.7,0,1.5,0,2.2
		c0,0.7,0.3,0.8,0.3,1.5c0,0.7,0.2,0.9,0.1,1.5c-0.2,0.6-0.2,0.6-0.5,1.4c-0.2,0.7-0.4,1.1-0.6,1.5c-0.2,0.4,0.2-0.2,0,0.7
		c-0.2,0.9-0.5,1-0.9,1.7c-0.4,0.8-0.5,0.4-0.5,1.2c0,0.8,0.5,0.5,0.3,1.5c-0.2,1-0.4,0.7-0.8,1.6c-0.4,0.9-0.8,1.6-1.1,2.1
		c-0.3,0.5,0,0.8-0.3,1.7c-0.3,1,0,1-0.4,1.6c-0.4,0.6-0.6,0.2-0.8,0.9c-0.2,0.7-0.3,0.8-0.8,1.3c-1.4,1.7-1,1.7-1,2.8
		c0,1.1-0.1,0.3,0.2,1.6c0.2,1.3-0.4,0.4,0.2,1.3c0.6,0.9,0.6,1.4,0.6,1.7c0.1,0.3,0.2,1.7,0.2,1.7s0.2,0.6,0.2,0.8
		c-0.1,0.2,0.1,0.1-0.4,0.8c-0.5,0.7-0.3,0.1-0.5,0.7l-0.2,0.6c0,0,0.2,0.9-0.2,1.7c-0.4,0.8-0.2,0.6-0.7,1.4
		c-0.5,0.7-0.5,0.1-0.5,0.7c0,0.6,0,1.1,0.2,1.5c0.2,0.4,0.4,0.6,0.7,0.9c0.3,0.3,0.6,0.4,0.9,0.5c1,0.4,1,0.4,1.4,0.2
		c0.4-0.2,0.4-0.6,1-0.2c0.6,0.3,1.1,0.2,0.7,0.8c-0.4,0.6-1.1,0.1-0.9,0.7c0.3,0.8,0.6,0.4,0.5,1.2c-0.2,0.8,0.2,0.3-0.2,0.8
		c-0.3,0.5-0.1,0.6,0,1c0.1,0.4-0.6,0.4-0.6,0.8c0,0.4,0,0.6-0.1,1.1c-0.1,0.6,0.2,0.2-0.1,0.6c-0.2,0.4-0.1-1.4-0.2,0.4
		c-0.2,1.8,0,1.5-0.2,1.8c-0.2,0.3-0.2,0.9-0.2,1.2c0,0.3-0.1,0.1,0,0.6c0.1,0.6,0.5,0.6,0.7,0.9c0.8,0.8,0.4,1.2,0.2,1.5
		c0,0-1.1-0.2-1.2,0.6c-0.2,1.8-0.6,1.8-0.2,1.8c0.3,0,1.3,1.4,0.9,1.4c-0.4,0-0.5-1-1.1-0.4c-0.6,0.6-0.7,0.8-0.7,1.1
		c0,0.3,0.4,0.6,0.3,1.2c-0.1,0.6-0.7,1.3-0.7,1.3l-0.9,1.3c0,0-0.9,0.7-0.7,0.2c0.2-0.5,0.4-1-0.1-1.1c-1.1-0.2-1.7-0.8-1.1-0.9
		c0,0-0.8-1.1-1.1-0.9c-1.1,0.8-1.4,1.1-1.4,1.4c0.1,0.3,0.5,0.2,0.3,0.7c-0.1,0.5-0.1,0.3-0.8,0.7c-0.6,0.4-2.1,0.2-1.7,0.9
		c0.4,0.6,1.4,1.2,1.7,1c0.2-0.2,1.2-1.2,1.2-1.2s0.9,0,0.8,0.4c-0.1,0.4-0.3,0.5,0.1,0.7c0.4,0.2,1.8-1.4,1.7-0.8
		c-0.1,0.6,0.2,0,0.1,0.9l-0.2,0.9c-0.2,0.9-1.3,0.2-1.4,0.9c-0.2,0.6-0.1,0.6,0.4,1.2c0.5,0.6,1.6-0.3,1.6,0.2
		c0,0.5-0.8,1.3-0.1,0.9c0.7-0.4,0.6-0.8,1-0.3c0.5,0.5,1.6,0.9,1.3,1.1c-1,0.6-2.1,0.4-2.1,0.4s-0.8-0.5-1,0.2
		c-0.2,0.6-0.3,0.9-0.1,1.1l-1.4,1.7c0,0,1.1,0.1,1.2,0.7c0.1,0.6,1.4,1.3,1,1.9c-0.5,0.6-0.7,1.7-0.7,1.7s0.5,0.2,0.3,0.6
		c-0.2,0.4-0.5-0.1-0.8,0.6c-0.3,0.6-0.2,1.1-0.1,1.4c0.2,0.2,1.4,0.8,1.3,1.1c-0.2,0.3,0,0.4-0.6,0.9c-1.1,0.8-1.2,0.2-1.7,0.6
		c-0.5,0.5-0.6,0.1,0.1,0.7c0.7,0.6,1.1,0.8,1.8,0.8c0.7,0,0.6-1,1-0.2c0.5,0.8,1,1,1,1.8c0,0.7-0.2,0.6-0.1,1.2
		c0.1,0.6,0.5,0.9,0.7,0.8c0.2-0.1,0.7,0.5,0.9-0.3c0.2-0.8,0.2-1.4,0.3-1.2c0.2,0.2,0.7,0,1,0.2c0.2,0.2,0.6,0.6,0.9,0.5
		c0.2-0.2,0.7-0.9,0.6-0.4c-0.1,0.5-0.2,1-0.2,1.6c0,0.6-0.9,0.2-1.1,0.6c-0.2,0.5,0.3,0.2,0.2,0.8c-0.1,0.6,0.7-0.5,0.4,0.6
		c-0.3,1.1,1-1,1.5-0.2c0.5,0.8,1.1,0.6,1.5,1c0.4,0.3,1-0.1,1.1,0.6c0.1,0.7,0.2,0.9,0.3,1.2c0.1,0.2,1,1,0.3,1.1
		c-0.6,0.2-1.2-0.7-1.8-0.2c-0.6,0.6-0.7,0.1-0.9,0.9c-0.2,0.8,0,0.2,0.2,1c0.2,0.7-0.6,1,0.4,1.2c1,0.2,2,0.2,2.3,0.4
		c0.3,0.2,1.2-0.7,1.2-1.2c0-0.5,0-1-0.2-1.5c-0.2-0.6,0.7-1.5,0.7-1.5l0.7-0.5l0.8-0.5c0,0-0.6-0.5,0.4-0.7c1-0.2,1.5,0.1,1.6,0.1
		h0.1c0,0,0.9,0.5-0.5,1c-1.3,0.5-2.6,1.7-2.2,2c0.4,0.2,1.7,0.2,1.9,0.3c0.2,0.1,1.1-0.2,1,0.2c-0.1,0.4-0.6,1-0.6,1
		s-1-0.8-1.1,0.2c-0.1,1,0.1,1,0.1,1.6c0,0.6,1.4,0.8,1.4,1.2c0,0.4,0.9,0.5,0.1,0.7c-0.8,0.2-1.4-0.1-1.4-0.1s-2.2-0.4-2.5-0.1
		c-0.2,0.3-0.8,0.2-1.3,0.6c-0.5,0.4-0.7,1.3-0.2,1.1c0.6-0.2,2,0.7,2.2,0.5c0.2-0.2,1.1-0.1,1.5-0.2c0.4-0.1,1.5-0.2,1.5-0.2
		s0.1,0.4,0.6,0.8c0.5,0.4,1.3,0.5,1.5,0.3c0.2-0.2-0.8-0.4,0.7,0c0.1,0,0.3,0.1,0.4,0.1c1.1,0.2,1.2-0.1,1.6,0.1
		c0.4,0.2,1.6-0.3,1.9-0.2c1,0.6,1.4,0.3,1.8,0.6c0.4,0.2,0.8-0.2,1.2-0.1c0.4,0.2,1.4-0.1,1.4-0.1s1.2-0.3,1,0
		c-0.2,0.3,1,0.4,1.4,0.2c0.4-0.2,1.8-0.9,1.8-0.9l-0.3-0.4c0,0,0.6-0.9-0.2-0.8c-0.8,0.1-1.7-0.5-2.5-0.4c-0.8,0.1-1.8-0.3-1.8-0.3
		s-0.6-0.8-1.1-1.2c-0.6-0.4-0.6-0.2-0.8-0.7c-0.2-0.6-0.1-1.5-0.6-1.3c-0.5,0.2-1-0.2-1.4-0.4c-0.4-0.2-1.1-1.6-1.4-1.8
		c-0.2-0.2-0.5-0.2-0.3-1c0.2-0.7,0.5-1.2,0.1-1.3c-0.4-0.1-0.5-1.2-1.2-0.8c-0.7,0.4-0.8,0.4-1.2,0.4c0,0,0,0,0,0
		c-0.4-0.1-0.5-0.8-1.2-1c-0.8-0.2-1.1-0.3-1.1-0.8c0-0.2,0-0.4,0-0.5c0-0.2,0.1-0.3,0.4-0.4c0.4-0.2,0.9-0.1,1.6,0.3
		c0.7,0.4,1.3,0.6,1.8,0.6c0.6-0.1,0.9-0.6,0.4-0.9c-0.5-0.3-1-1.6-1.4-2.1c-0.4-0.6-0.8-1.4-0.9-1.7c-0.1-0.2,0.2-1.4,0.1-1.8
		c-0.1-0.5-0.5-1.4,0-1.3c0.5,0.1,0.2-0.6,1-1.5c0.9-1,1.1-1.5,1.8-1.4c0.6,0.2,1.4,0.1,1.4-0.2c0.1-0.2-0.2-1.6-0.1-1.9
		c0.2-0.3,1.3-2.7,1.6-3.3c0.3-0.6,0.9-0.5,1.4-0.9c0.6-0.4,1.4-0.4,2.2-1.3c0.9-0.9,1.8-1.3,1.9-1.7c0.1-0.4,0.4-0.8,0.2-1.1
		c-0.2-0.3,0.1-0.5-0.8-0.6c-0.9-0.2-0.3-1,0.2-1.3c0.5-0.3,0.7-0.1,0.5-1c-0.2-0.9-0.2-1.4-0.6-1.4c-0.4,0-0.7-0.2-1.1-0.2
		c-0.4,0.1-1.2,0.1-1.6,0c-0.4-0.1-1.4-0.2-1.5-0.7c-0.2-0.6-0.8-0.7-0.9-1.6c-0.1-0.9,0.2-1.6,0.6-2c0.3-0.4,0.6-1.4,0.7-1.7
		c0.1-0.3,0-0.5,0.3-0.7c0.3-0.2,1.3-0.8,1.3-0.8s-0.3,0.5,0.9-0.2c1.2-0.6,2.3-1.8,2.5-1.6c0.2,0.2,0.7,1.5,1.3-0.2
		c0.6-1.7,0.7-2.9,0.7-2.9l-0.5-0.8l0.6-1c0,0,0.4-1.9,0.7-2c1.2-0.4,1.5-1,1.5-1s-1.3-1.3-1.2-1.6c0.1-0.3,0.2-0.6,0.6-0.6
		c0.4,0.1,0.5-0.4,0.9,0.1c0.9,1,0.4,1.7,1,1.6c0.6-0.1,0.6,2,1.2-0.3c0.6-2.3,1.2-2.9,0.3-2.9c-0.9,0-1.3-0.9-1.8-0.3
		c-0.6,0.6-1,1.4-1,1.4c-1-0.2-1.6-0.6-1.6-0.9c-0.1-0.9-0.5-0.8-0.4-1.4c0.1-0.6,0.3-1.1,0.4-1.5c0.1-0.4,0-0.6,0.2-1.1
		c0.2-0.6-1-1-0.6-1.6c0.4-0.6,0-0.5,1.3-0.2c1.3,0.3,2.4,0,2.2,0.6c-0.2,0.6,0.2,1.3,1,1.3c0.8,0,1.4-0.2,1.7-0.2
		c0.4,0.1,1.1,0,1.4-0.1c0.2-0.1,1-0.3,1.3-0.6c0.2-0.3,2.2-0.6,1-1c-1.3-0.5-1.4-0.6-1.3-1c0.2-0.4,1-1.1,1-1.1
		c0.4-1.5,0.7-1.7,0.7-2.2c0-0.5,0.6-0.4,0.1-1.4c-0.5-1-1.1-1.4-0.7-1.6c1.6-0.6,1.4-0.2,2.2-0.2c0.8,0.1-0.3,0.1,0.8,0.1
		c1.1,0,1.6-0.1,1.6-0.1s0.4,0.2,1.7,0c1.3-0.2,5.5-1.3,5.8-1.3c0.3,0,1.2-0.2,1.2-0.2s0.6-0.5,0.8-0.2c0.2,0.2,0.6-0.7,0.9-0.6
		c0.2,0.2,0.9-0.4,1.1-0.6c0.2-0.2,0.2-0.5,0.6-0.6c0.3-0.2,0.8-0.6,0.8-0.6c0.6-0.8,1-1.7,1-1.7s0.2-0.6,0.6-0.8
		c0.4-0.2,0.4-0.5,0.5-0.8c0.1-0.3-0.2,0.2,0-1c0.2-1.1,0.3-0.5,0.2-1.4c-0.2-1,0.2-1-0.6-1.2c-0.7-0.2-0.8-0.6-1-1
		c-0.2-0.4,0,0.6-0.2-0.4c-0.2-1,0.3-1.3,0.2-1.7c-0.2-0.7,0.2-1.6-0.2-1.7c-0.3-0.1-0.1-1.2-0.8-1c-0.7,0.2-2.5-0.8-2.9-1
		c-0.4-0.2-0.6-0.4-0.8-0.7c-0.2-0.3-0.3-0.6-0.2-1.2c0.1-0.6,0.6,0.2,0.4-1.1c-0.2-1.4,0.5-1.8,0.3-2c-0.2-0.2-0.4-0.4-0.2-1
		c0.2-0.6-0.2-0.5,0.2-0.9c0.5-0.4,0.6-0.4,0.5-1.2c-0.1-0.7,0-1.3,0-1.4c0,0,0,0,0,0s0.4,1.4,0.3,2.2c-0.1,0.8-0.2,0.9-0.2,1.4
		c0,0.6,0,2.2-0.1,2.4c-0.5,1.1-0.8,1.4-0.6,1.6c0.2,0.2,0.8,1.4,1.4,1.2c0.6-0.2,0.3-0.4,0.9-0.2c1,0.5,1.7-0.1,1.7,0.5
		c0.1,0.6,0.7,0.9,1.2,1.1c0.5,0.2,1.3,0.2,1.6,0.3c0.8,0.3,0.7,0.3,1.1,0.3c0.4-0.1,0.9,0.1,1.3-0.1c0.4-0.2,0.2-0.5,0.9-0.3
		c0.6,0.2,1.1,0,1.4,0.2c1.1,0.6,2.8-0.2,2.8-0.2s0.7-1,1-1c0.2-0.1,0.5,0,1-0.8c0.6-0.8,1-1.8,1.2-2c0.2-0.2,0.5-0.3,0.9-1
		c0.4-0.7,0.8-1.1,1.2-1.5c0.4-0.4,1.4-1.1,1.4-1.1s0.6-0.9,0.5-1.4c-0.1-0.5,0.2-1.1,0.4-1.5c0.2-0.4,0.2-0.6,0.5-0.9
		c0.3-0.2,0.7,0.7,0.6-0.3c0.5-0.1,1.8-1,1.8-1s0.3-0.7,1-1c0.6-0.3,1.1-0.9,1.4-1c0.2-0.1,0.6-0.5,0.9-0.8c0.3-0.3,1-0.9,1-1.6
		c-0.1-0.7,0.1-1.1,0.3-1.3c0.2-0.2,0.3,0.2,0.6-1c0.3-1.2,0-1.2,0.6-1.9c0.6-0.7,0.6-1.4,2.1-2.4c0,0,1.4-2.2,1.7-2.8
		c0.3-0.6,0.5-0.5,0.6-0.9c0.2-0.4,0.5-1.3,0.5-1.7c0-0.4,0.5-1.8,0.2-2.1c-0.2-0.3,0.1-1.4,0.1-1.4s-0.2-0.7-0.6-1.1
		c-0.3-0.4,0-0.5-0.3-1c-0.3-0.6-0.9-0.7-0.3-1.1c0.6-0.4,1,0.2,0.7-0.8c-0.3-1-1.1-1.4-0.5-1.5c0.6-0.2,1.4,0.1,1.8,0
		c0.4-0.1,0.3-0.1,0.8-0.3c0,0,0,0,0,0c0-0.1,0.2-0.3,0.8-0.9c1.5-1.5,2.8-2.1,2.8-2.1c0.9-0.8,0.6-1.1,0.9-1.2
		c0.3-0.1,0.6-0.3,1-0.3c0.4,0,0.9-0.2,1.3-0.4c0,0,0.6,0.2,0.9,0.6c0.3,0.3,0.2,0,0.7-0.1c0.6-0.1,1.5-0.2,1.5-0.2s-1.8-0.4-0.9-1
		c0.9-0.6,0.9,0,1.7-0.6c0.8-0.6,1.1-0.2,1.4-1c0.2-0.8-0.1-1.4,0.2-0.8c0.3,0.6,0.4,0.3,0.9,0.4c0.6,0.1,1.4-0.3,1.8-0.2
		c0.4,0.1,0.8-0.4,1-0.2c0.2,0.2,0.6-0.2,0.8,0.1c0.2,0.3,0.6,0.5,1.2,0.2c0.6-0.3,0.9-0.9,1.1-0.6c0.2,0.3,0.7,0.1,0.9,0.2
		c0.2,0.2,0.8,0,1-0.6c0.2-0.6,0.4-1.2,0.7-1.4c1-0.7,0,0.4,1.4-1c1.4-1.4,1.6-1.4,1.6-1.9c0-0.5-0.3-1.5,0.2-2
		c0.5-0.5,1.2-0.9,1.4-1.5c0.2-0.6,0.2-0.6,1.2-1.9c1-1.4,0.5-1.4,1-1.8c0.5-0.4,0.5,1.8,0.6-1c0.2-2.7,0.4-2.5,0.2-3.1
		c-0.2-0.6-0.2-0.6-0.1-1c0.2-0.4-0.2-0.8,0.6-1c0.7-0.2,1-0.6,1-0.8c0.1-0.2,0.5-1.1,0.5-1.4c0-0.3,0.5-1.5,0.2-2.1
		c-0.3-0.6-0.1-1.2,0-1.4c0.5-1.3,0.6-1.2,0.5-1.8c-0.1-0.6-0.7-1.5-0.6-2.2c0.1-0.7,0.6-1.8,0.4-2.3c-0.2-0.5,0.2-0.8,0.1-1.6
		c-0.2-0.8,0-1.4-0.1-1.7c-0.1-0.3,0.2-0.1-0.1-1c-0.2-1-1.1-1.2-0.3-1.4c0.8-0.2-0.2,0,0.8-0.2c1-0.2,1.5,0,0.6-0.3
		c-0.9-0.3-1.3-0.5-1.3-0.5s-0.2-0.3,0.7-0.3c0.9,0,0.6-0.2,1.2-0.1c0.6,0.2-0.1,0.6,0.6,0.2c0.7-0.5,1.4-0.6,1.4-1.3
		c0.1-0.6,0.6-1.3,0.8-1.5c0.2-0.2,0.4-0.7,0.4-0.7s0.1-0.6,0.2-0.8c0.1-0.2,0.1-1,0.3-1.1c0.2-0.1,0.4,0.1,1-0.8
		c0.6-0.9,2.9-2.8,3.6-3.4c0.6-0.6,0.9-0.3,1.3-1c0.4-0.7,0.5-0.7,0.9-1.4c0.5-0.7,0.7-0.7,0.9-1c0.2-0.3,0.2-0.9,0.5-1.3
		c0.2-0.4,0.6-1,0.6-1.4c-0.1-0.4,0.1-1.3,0-1.5c-0.1-0.2-0.1-0.4-0.2-1c-0.1-0.6-0.4-1.3-0.1-1.7
		C509.5,552.8,509.6,552.3,509.5,551.7z"/>
</g>
<g transform="matrix(1,0,0,1,-8.58111,-38.3813)">
	<path class="st0" d="M223.1,268.8C223.1,268.8,223,268.8,223.1,268.8C223,268.8,223,268.8,223.1,268.8z"/>
</g>
</svg>
